<svg width="96px" height="91px" viewBox="0 0 96 91" version="1.1" xmlns="http://www.w3.org/2000/svg" xmlns:xlink="http://www.w3.org/1999/xlink" preserveAspectRatio="xMinYMin meet"><defs><linearGradient x1="-86.1138684%" y1="-92.819878%" x2="105.176893%" y2="106.041826%" id="linearGradient-1"><stop stop-color="#F9A03C" offset="0%"></stop><stop stop-color="#F7974E" offset="100%"></stop></linearGradient><linearGradient x1="-258.923825%" y1="-251.975957%" x2="97.6202479%" y2="99.2587872%" id="linearGradient-2"><stop stop-color="#F9A03C" offset="0%"></stop><stop stop-color="#F7974E" offset="100%"></stop></linearGradient><linearGradient x1="-238.516664%" y1="-261.967947%" x2="96.5031002%" y2="101.690818%" id="linearGradient-3"><stop stop-color="#F9A03C" offset="0%"></stop><stop stop-color="#F7974E" offset="100%"></stop></linearGradient><linearGradient x1="6.79769253%" y1="-1.82169774%" x2="86.3130823%" y2="92.1067478%" id="linearGradient-4"><stop stop-color="#F26D58" offset="0%"></stop><stop stop-color="#F9A03C" offset="100%"></stop></linearGradient><linearGradient x1="15.8436473%" y1="-4.58178541%" x2="120.126091%" y2="76.4738256%" id="linearGradient-5"><stop stop-color="#B84E51" offset="0%"></stop><stop stop-color="#F68E48" offset="100%"></stop></linearGradient><linearGradient x1="39.0174319%" y1="23.4664325%" x2="56.8499373%" y2="147.391179%" id="linearGradient-6"><stop stop-color="#F9A03C" offset="0%"></stop><stop stop-color="#F7974E" offset="100%"></stop></linearGradient></defs><g><path d="M95.82,65.857 C95.863,65.439 95.894,65.017 95.918,64.593 C95.947,64.091 65.707,35.399 65.707,35.399 L64.984,35.399 C64.984,35.399 95.635,67.73 95.82,65.857 L95.82,65.857 L95.82,65.857 Z" fill="url(#linearGradient-1)"></path><path d="M31.302,55.904 C31.262,55.992 31.222,56.08 31.181,56.168 C31.138,56.26 31.094,56.352 31.05,56.443 C30.086,58.453 44.545,72.588 45.708,70.871 C45.761,70.795 45.814,70.715 45.867,70.639 C45.926,70.549 45.984,70.463 46.042,70.373 C46.972,68.961 31.715,54.986 31.302,55.904 L31.302,55.904 L31.302,55.904 Z" fill="url(#linearGradient-2)"></path><path d="M51.734,75.781 C51.693,75.871 51.402,76.363 51.136,76.623 C51.091,76.713 65.251,90.756 65.251,90.756 L66.526,90.756 C66.527,90.756 53.234,76.375 51.734,75.781 L51.734,75.781 L51.734,75.781 Z" fill="url(#linearGradient-3)"></path><path d="M95.938,64.338 C95.276,79.018 83.131,90.756 68.293,90.756 L66.287,90.756 L51.469,76.158 C52.688,74.439 53.821,72.658 54.83,70.801 L68.293,70.801 C72.551,70.801 76.016,67.338 76.016,63.078 C76.016,58.82 72.551,55.355 68.293,55.355 L60.326,55.355 C60.933,52.146 61.265,48.837 61.265,45.452 C61.265,42.015 60.927,38.659 60.298,35.399 L65.247,35.399 L95.851,65.554 C95.887,65.15 95.916,64.746 95.938,64.338 L95.938,64.338 L95.938,64.338 Z M8.05,0 L0,0 L0,19.955 L8.05,19.955 C22.11,19.955 33.55,31.392 33.55,45.452 C33.55,49.277 32.697,52.908 31.181,56.168 L45.867,70.639 C50.689,63.424 53.508,54.762 53.508,45.452 C53.508,20.39 33.115,0 8.05,0 L8.05,0 L8.05,0 Z" fill="url(#linearGradient-4)"></path><path d="M68.293,0 L35.695,0 C43.657,4.861 50.25,11.754 54.742,19.955 L68.293,19.955 C72.551,19.955 76.016,23.418 76.016,27.678 C76.016,31.937 72.551,35.4 68.293,35.4 L65.248,35.4 L95.852,65.555 C95.924,64.737 95.969,63.914 95.969,63.078 C95.969,56.351 93.555,50.18 89.547,45.377 C93.555,40.576 95.969,34.404 95.969,27.678 C95.969,12.417 83.555,0 68.293,0 L68.293,0 L68.293,0 Z" fill="url(#linearGradient-5)"></path><path d="M66.287,90.756 L35.928,90.756 C42.039,86.982 47.322,82 51.469,76.158 L66.287,90.756 L66.287,90.756 Z M45.867,70.639 L31.182,56.168 C27.125,64.887 18.284,70.951 8.05,70.951 L0,70.951 L0,90.904 L8.05,90.904 C23.804,90.904 37.709,82.846 45.867,70.639 L45.867,70.639 L45.867,70.639 Z" fill="url(#linearGradient-6)"></path></g></svg>