<svg width="364" height="512" viewBox="0 0 364 512" xmlns="http://www.w3.org/2000/svg" preserveAspectRatio="xMinYMin meet"><g fill="none"><path d="M363.367 100.62l-33.046 370.199-148.543 41.181-148.134-41.123-33.011-370.257h362.734z" fill="#E44D26"/><path d="M182 480.523l120.03-33.277 28.24-316.352h-148.27v349.629z" fill="#F16529"/><path d="M117.76 221.716h64.24v-45.411h-113.868l1.087 12.183 11.161 125.139h101.62v-45.41h-60.09l-4.15-46.501z" fill="#EBEBEB"/><path d="M127.994 336.333h-45.585l6.362 71.301 93.02 25.823.209-.058v-47.246l-.199.053-50.574-13.656-3.233-36.217z" fill="#EBEBEB"/><path d="M34.382 0h23.077v22.8h21.11v-22.8h23.078v69.044h-23.077v-23.12h-21.11v23.12h-23.077v-69.044h-.001z" fill="#000"/><path d="M131.994 22.896h-20.316v-22.896h63.72v22.896h-20.325v46.148h-23.078v-46.148h-.001z" fill="#000"/><path d="M185.511 0h24.063l14.802 24.26 14.787-24.26h24.072v69.044h-22.982v-34.222l-15.877 24.549h-.397l-15.888-24.549v34.222h-22.58v-69.044z" fill="#000"/><path d="M274.72 0h23.084v46.222h32.453v22.822h-55.537v-69.044z" fill="#000"/><path d="M181.843 313.627h55.918l-5.271 58.894-50.647 13.67v47.244l93.094-25.801.683-7.672 10.671-119.551 1.108-12.194h-105.556v45.41z" fill="#fff"/><path d="M181.843 221.605v.111h109.688l.911-10.207 2.069-23.021 1.086-12.183h-113.754v45.3z" fill="#fff"/></g></svg>