<?xml version="1.0" encoding="UTF-8" standalone="no"?>
<svg width="566px" height="555px" viewBox="0 0 566 555" version="1.1" xmlns="http://www.w3.org/2000/svg" xmlns:xlink="http://www.w3.org/1999/xlink">
    <defs></defs>
    <g stroke="none" stroke-width="1" fill="none" fill-rule="evenodd">
        <g fill="#00546B">
            <g transform="translate(0.460160, 0.496205)">
                <path d="M520.08311,428.63114 C489.36471,427.86514 465.55751,430.9389 445.589907,439.38453 C439.830207,441.68744 430.613707,441.68985 429.845307,448.984 C432.919107,452.0578 433.302107,457.04906 435.990407,461.27186 C440.601107,468.94901 448.661307,479.31939 455.957907,484.69608 C464.02051,490.83878 472.08551,496.98148 480.53121,502.35817 C495.50741,511.57467 512.40341,516.94889 526.99421,526.16535 C535.44471,531.53714 543.88781,538.45319 552.33591,544.21288 C556.56121,547.28179 559.24711,552.27546 564.62381,554.19536 L564.62381,553.04392 C561.93541,549.58715 561.16701,544.59589 558.48111,540.75608 C554.64371,536.91628 550.80151,533.4595 546.96171,529.6197 C535.82531,514.64592 522.00291,501.58975 507.02691,490.83878 C494.74151,482.39071 467.86051,470.87133 462.869107,456.66357 C462.869107,456.66357 462.483707,456.28056 462.100707,455.89755 C470.54871,455.1291 480.53121,452.05778 488.59631,449.75241 C501.65261,446.29565 513.55511,447.06408 526.99421,443.60971 C533.13691,442.07284 539.28211,440.15294 545.42481,438.23303 L545.42481,434.7787 C538.51611,427.86508 533.52241,418.65106 526.22581,412.12287 C506.64381,395.22437 485.13941,378.71612 462.869107,364.89376 C450.964207,357.21417 435.605007,352.22045 422.934307,345.69474 C418.328507,343.38698 410.646407,342.23798 407.960507,338.39814 C401.046937,329.95012 397.207137,318.81617 392.215897,308.83116 C381.084397,287.70993 370.328507,264.29046 360.729127,242.0201 C353.820427,227.04391 349.595187,212.06765 341.147137,198.24553 C301.597807,132.96901 258.59144,93.419462 192.5465,54.636068 C178.33877,46.573447 161.44517,43.116682 143.39758,38.893877 C133.80053,38.508432 124.19858,37.742434 114.59901,37.356989 C108.45631,34.668616 102.31117,27.374491 96.93446,23.917695 C75.05203,10.092966 18.604,-19.85461 2.47641,19.69489 C-7.89154,44.653653 17.83561,69.226795 26.66656,81.900019 C33.19714,90.731094 41.64275,100.71357 46.251,110.69861 C48.93936,117.22188 49.70535,124.13789 52.39371,131.04905 C58.53884,147.94026 64.2961,166.75859 72.36114,182.5034 C76.58638,190.56602 81.19219,199.01406 86.56888,206.30813 C89.64022,210.53093 95.01448,212.45327 96.16836,219.36442 C90.79412,227.04399 90.40867,238.56342 87.33487,248.16299 C73.51258,291.55212 78.88926,345.30946 98.47127,377.17919 C104.61397,386.77626 119.20707,407.90003 138.78923,399.83501 C156.06832,392.92383 152.22851,371.03644 157.21977,351.83744 C158.37367,347.22676 157.60521,344.15787 159.90812,341.08649 C159.91012,341.4695 159.90812,341.85493 159.90812,341.85493 C165.2848,352.60588 170.65907,362.9739 175.65031,373.72467 C187.55514,392.53822 208.28867,412.12264 225.56765,425.17906 C234.78659,432.08774 242.08073,443.99262 253.60008,448.21784 L253.60008,447.06394 L252.83164,447.06394 C250.5263,443.60717 247.07195,442.07268 244.00059,439.38437 C237.08943,432.47321 229.4074,424.02514 224.03316,416.34559 C207.90796,394.84117 193.69776,371.03646 181.02699,346.46086 C174.88429,334.55847 169.50761,321.50207 164.51635,309.59972 C162.21101,304.98905 162.21101,298.08033 158.37121,295.77744 C152.61152,304.22303 144.16591,311.51963 139.94067,321.8876 C132.64896,338.39824 131.87807,358.74873 129.18972,379.86748 C127.65524,380.25294 128.42126,379.86748 127.65281,380.63595 C115.3674,377.56215 111.14216,364.89376 106.53383,354.14035 C95.01444,326.87882 93.09455,283.10403 103.07948,251.61974 C105.76783,243.5547 117.28722,218.21296 112.67897,210.53335 C110.37606,203.23674 102.69403,199.01396 98.47123,193.25427 C93.47997,185.95767 88.10329,176.74362 84.64894,168.67867 C75.43244,147.17672 70.82421,123.36954 60.84175,101.86512 C56.2335,91.880182 48.1709,81.514677 41.64275,72.300592 C34.34861,61.93267 26.28355,54.636068 20.52378,42.348186 C18.60631,38.125381 15.91553,31.214245 18.98689,26.605975 C19.75534,23.534644 21.28979,22.383181 24.36357,21.614726 C29.35483,17.389485 43.56257,22.766169 48.55372,25.069086 C62.76146,30.826323 74.66388,36.205484 86.56871,44.268084 C91.94296,48.107879 97.70265,55.404481 104.61381,57.324379 L112.67884,57.324379 C124.96668,60.010295 138.789,58.092792 150.30838,61.547183 C170.66126,68.072895 189.08931,77.674819 205.60255,88.042783 C255.90534,119.91253 297.372197,165.22413 325.404827,219.36444 C330.013077,228.19306 331.930537,236.26051 336.155777,245.4746 C344.220817,264.29059 354.203307,283.48958 362.265927,301.92015 C370.328527,319.96524 378.008117,338.39828 389.527467,353.3745 C395.289597,361.43468 418.326007,365.6599 428.693807,369.88514 C436.373407,373.33951 448.278307,376.41331 455.189407,380.6361 C468.24331,388.69626 481.29961,397.91522 493.58741,406.74625 C499.73251,411.35208 518.92911,420.95401 520.08301,428.63118 L520.08311,428.63114 L520.08311,428.63114 Z"></path>
                <path d="M128.4194,94.951482 C121.89126,94.951482 117.28546,95.722372 112.67721,96.873842 C112.67721,96.871842 112.67721,97.259282 112.67721,97.642292 L113.44567,97.642292 C116.51946,103.78499 121.89128,108.01023 125.73107,113.38446 C128.80487,119.52716 131.49076,125.67232 134.56456,131.81746 C134.94755,131.43201 135.33056,131.04901 135.33056,131.04901 C140.7097,127.20677 143.3956,121.06407 143.3956,111.85001 C141.09025,109.16166 140.70724,106.47332 138.78735,103.78497 C136.48444,99.942722 131.49074,98.025282 128.4194,94.951482 L128.4194,94.951482 L128.4194,94.951482 Z"></path>
            </g>
        </g>
    </g>
</svg>