<?xml version="1.0" encoding="UTF-8" standalone="no"?>
<svg width="111px" height="110px" viewBox="0 0 111 110" version="1.1" xmlns="http://www.w3.org/2000/svg" xmlns:xlink="http://www.w3.org/1999/xlink">
    <defs>
        <linearGradient x1="12.9593594%" y1="11.6996305%" x2="79.6388325%" y2="78.4532626%" id="linearGradient-1">
            <stop stop-color="#387EB8" offset="0%"></stop>
            <stop stop-color="#366994" offset="100%"></stop>
        </linearGradient>
        <linearGradient x1="19.127525%" y1="20.315846%" x2="90.7415328%" y2="88.7730019%" id="linearGradient-2">
            <stop stop-color="#FFE052" offset="0%"></stop>
            <stop stop-color="#FFC331" offset="100%"></stop>
        </linearGradient>
    </defs>
    <g stroke="none" stroke-width="1" fill="none" fill-rule="evenodd">
        <g transform="translate(-2.000000, -1.000000)">
            <g transform="translate(0.639120, 0.275150)">
                <g transform="translate(0.423380, 0.256100)">
                    <path d="M55.75,0.46875 C27.718268,0.468752 29.46875,12.625 29.46875,12.625 L29.5,25.21875 L56.25,25.21875 L56.25,29 L18.875,29 C18.875,29 0.9375,26.965724 0.9375,55.25 C0.937498,83.53427 16.59375,82.53125 16.59375,82.53125 L25.9375,82.53125 L25.9375,69.40625 C25.9375,69.40625 25.433848,53.75 41.34375,53.75 L67.875,53.75 C67.875,53.75 82.78125,53.99096 82.78125,39.34375 L82.78125,15.125 C82.78125,15.124998 85.04443,0.46875 55.75,0.46875 L55.75,0.46875 Z M41,8.9375 C43.661429,8.937498 45.8125,11.088571 45.8125,13.75 C45.812502,16.411429 43.661429,18.5625 41,18.5625 C38.338571,18.562502 36.1875,16.411429 36.1875,13.75 C36.187498,11.088571 38.338571,8.9375 41,8.9375 L41,8.9375 Z" fill="url(#linearGradient-1)"></path>
                    <path d="M56.5461,110.31485 C84.57784,110.31485 82.82735,98.1586 82.82735,98.1586 L82.7961,85.56485 L56.0461,85.56485 L56.0461,81.7836 L93.4211,81.7836 C93.4211,81.7836 111.3586,83.81787 111.3586,55.53359 C111.35861,27.249323 95.70235,28.252343 95.70235,28.252343 L86.3586,28.252343 L86.3586,41.37734 C86.3586,41.37734 86.86226,57.03359 70.95235,57.03359 L44.421098,57.03359 C44.421098,57.03359 29.514848,56.79263 29.514848,71.43985 L29.514848,95.6586 C29.514848,95.6586 27.251668,110.31485 56.5461,110.31485 L56.5461,110.31485 Z M71.2961,101.8461 C68.63467,101.8461 66.4836,99.69503 66.4836,97.0336 C66.4836,94.37217 68.63467,92.2211 71.2961,92.2211 C73.95753,92.2211 76.1086,94.37217 76.1086,97.0336 C76.10861,99.69503 73.95753,101.8461 71.2961,101.8461 L71.2961,101.8461 Z" fill="url(#linearGradient-2)"></path>
                </g>
            </g>
        </g>
    </g>
</svg>