<svg width="608px" height="544px" viewBox="0 0 608 544" version="1.1" xmlns="http://www.w3.org/2000/svg" xmlns:xlink="http://www.w3.org/1999/xlink" preserveAspectRatio="xMinYMin meet"><g transform="translate(9.000000, 9.000000)"><path d="M123.911,163.969 C116.44,166.094 109.235,168.362 102.33,170.77 C39.882,192.543 0,226.663 0,262.057 C0,298.611 42.813,335.277 107.858,357.509 C112.993,359.264 118.312,360.929 123.803,362.505 C122.022,369.675 120.475,376.7 119.174,383.553 C106.837,448.527 116.471,500.119 147.132,517.802 C178.8,536.064 231.949,517.293 283.703,472.054 C287.615,468.635 291.539,465.029 295.471,461.244 C300.982,466.569 306.484,471.599 311.957,476.308 C362.086,519.446 411.597,536.865 442.229,519.132 C473.866,500.817 484.148,445.396 470.8,377.965 C469.719,372.502 468.459,366.92 467.026,361.228 C470.843,360.102 474.58,358.934 478.231,357.724 C545.851,335.32 589.846,299.101 589.846,262.057 C589.846,226.535 548.678,192.184 484.972,170.253 C478.853,168.147 472.521,166.15 465.993,164.265 C467.066,159.886 468.042,155.568 468.917,151.318 C483.29,81.548 473.893,25.341 441.802,6.835 C411.031,-10.909 360.707,7.592 309.883,51.823 C304.814,56.234 299.731,60.904 294.65,65.816 C291.568,62.88 288.491,60.047 285.422,57.322 C232.156,10.026 178.767,-9.904 146.707,8.656 C115.965,26.451 106.862,79.292 119.799,145.413 C120.987,151.484 122.359,157.674 123.91,163.967 L123.911,163.969" fill="#FFFFFF"></path><path d="M123.911,163.969 C116.44,166.094 109.235,168.362 102.33,170.77 C39.882,192.543 0,226.663 0,262.057 C0,298.611 42.813,335.277 107.858,357.509 C112.993,359.264 118.312,360.929 123.803,362.505 C122.022,369.675 120.475,376.7 119.174,383.553 C106.837,448.527 116.471,500.119 147.132,517.802 C178.8,536.064 231.949,517.293 283.703,472.054 C287.615,468.635 291.539,465.029 295.471,461.244 C300.982,466.569 306.484,471.599 311.957,476.308 C362.086,519.446 411.597,536.865 442.229,519.132 C473.866,500.817 484.148,445.396 470.8,377.965 C469.719,372.502 468.459,366.92 467.026,361.228 C470.843,360.102 474.58,358.934 478.231,357.724 C545.851,335.32 589.846,299.101 589.846,262.057 C589.846,226.535 548.678,192.184 484.972,170.253 C478.853,168.147 472.521,166.15 465.993,164.265 C467.066,159.886 468.042,155.568 468.917,151.318 C483.29,81.548 473.893,25.341 441.802,6.835 C411.031,-10.909 360.707,7.592 309.883,51.823 C304.814,56.234 299.731,60.904 294.65,65.816 C291.568,62.88 288.491,60.047 285.422,57.322 C232.156,10.026 178.767,-9.904 146.707,8.656 C115.965,26.451 106.862,79.292 119.799,145.413 C120.987,151.484 122.359,157.674 123.91,163.967 L123.911,163.969 L123.911,163.969 Z" stroke="#FFFFFF" stroke-width="18"></path><path d="M295.55,212.119 C323.256,212.119 345.717,234.579 345.717,262.286 C345.717,289.992 323.256,312.453 295.55,312.453 C267.844,312.453 245.383,289.992 245.383,262.286 C245.383,234.579 267.844,212.119 295.55,212.119" fill="#53C1DE"></path><path d="M462.594,330.623 C459.522,331.64 456.37,332.623 453.158,333.576 C446.048,311.067 436.452,287.132 424.709,262.403 C435.915,238.263 445.14,214.634 452.051,192.271 C457.798,193.934 463.376,195.688 468.751,197.539 C520.739,215.436 552.451,241.897 552.451,262.286 C552.451,284.004 518.203,312.197 462.594,330.623 L462.594,330.623 Z M439.52,376.345 C445.142,404.744 445.945,430.42 442.221,450.492 C438.875,468.528 432.146,480.553 423.826,485.369 C406.121,495.617 368.259,482.296 327.426,447.158 C322.745,443.13 318.03,438.829 313.3,434.277 C329.13,416.964 344.951,396.837 360.392,374.484 C387.551,372.074 413.21,368.134 436.479,362.755 C437.625,367.378 438.643,371.912 439.52,376.345 L439.52,376.345 Z M206.18,483.598 C188.882,489.707 175.105,489.882 166.777,485.08 C149.056,474.859 141.689,435.405 151.738,382.481 C152.889,376.42 154.259,370.194 155.838,363.83 C178.852,368.919 204.323,372.581 231.547,374.788 C247.092,396.661 263.37,416.766 279.774,434.37 C276.19,437.83 272.62,441.124 269.07,444.228 C247.273,463.281 225.43,476.799 206.18,483.598 L206.18,483.598 Z M125.141,330.49 C97.747,321.127 75.124,308.958 59.617,295.679 C45.683,283.746 38.648,271.899 38.648,262.286 C38.648,241.829 69.147,215.736 120.014,198.001 C126.186,195.849 132.647,193.821 139.352,191.916 C146.382,214.784 155.604,238.693 166.733,262.87 C155.46,287.406 146.107,311.696 139.008,334.832 C134.228,333.458 129.597,332.012 125.141,330.49 L125.141,330.49 Z M152.306,145.58 C141.748,91.622 148.76,50.918 166.405,40.704 C185.2,29.823 226.761,45.337 270.565,84.232 C273.365,86.718 276.176,89.32 278.995,92.012 C262.672,109.539 246.543,129.493 231.136,151.237 C204.714,153.686 179.422,157.62 156.168,162.888 C154.706,157.007 153.411,151.229 152.306,145.58 L152.306,145.58 Z M394.642,205.419 C389.083,195.817 383.376,186.442 377.558,177.323 C395.483,179.589 412.657,182.597 428.785,186.278 C423.943,201.796 417.908,218.021 410.804,234.654 C405.708,224.979 400.318,215.224 394.642,205.419 L394.642,205.419 Z M295.818,109.164 C306.888,121.157 317.974,134.547 328.878,149.075 C317.89,148.556 306.766,148.286 295.55,148.286 C284.44,148.286 273.398,148.55 262.478,149.06 C273.393,134.667 284.575,121.295 295.818,109.164 L295.818,109.164 Z M196.361,205.585 C190.808,215.214 185.518,224.916 180.502,234.636 C173.513,218.061 167.534,201.762 162.65,186.024 C178.679,182.437 195.772,179.504 213.583,177.281 C207.683,186.484 201.929,195.928 196.361,205.583 L196.361,205.585 L196.361,205.585 Z M214.096,349.003 C195.694,346.95 178.344,344.168 162.319,340.68 C167.281,324.661 173.392,308.014 180.529,291.082 C185.558,300.795 190.869,310.501 196.456,320.151 L196.457,320.151 C202.148,329.982 208.044,339.612 214.096,349.003 L214.096,349.003 Z M296.482,417.1 C285.107,404.827 273.761,391.251 262.68,376.648 C273.437,377.07 284.404,377.286 295.55,377.286 C307.001,377.286 318.321,377.028 329.463,376.532 C318.523,391.398 307.477,404.995 296.482,417.1 L296.482,417.1 Z M411.033,290.219 C418.542,307.334 424.872,323.894 429.898,339.64 C413.609,343.356 396.022,346.349 377.492,348.573 C383.324,339.331 389.081,329.795 394.738,319.986 C400.461,310.062 405.895,300.123 411.033,290.219 L411.033,290.219 Z M373.949,307.996 C365.167,323.223 356.151,337.759 346.998,351.48 C330.327,352.672 313.104,353.286 295.55,353.286 C278.067,353.286 261.061,352.743 244.685,351.68 C235.163,337.779 225.951,323.2 217.225,308.127 L217.227,308.127 C208.524,293.095 200.514,277.936 193.256,262.862 C200.512,247.753 208.501,232.577 217.154,217.572 L217.152,217.575 C225.828,202.53 234.959,188.022 244.393,174.208 C261.101,172.945 278.234,172.286 295.549,172.286 L295.55,172.286 C312.943,172.286 330.098,172.95 346.801,174.224 C356.091,187.937 365.16,202.398 373.87,217.445 C382.679,232.661 390.771,247.736 398.089,262.521 C390.793,277.56 382.719,292.787 373.949,307.996 L373.949,307.996 Z M423.458,39.99 C442.271,50.839 449.587,94.593 437.767,151.968 C437.013,155.629 436.164,159.358 435.242,163.137 C411.934,157.759 386.624,153.757 360.125,151.271 C344.688,129.288 328.691,109.303 312.634,92.001 C316.951,87.848 321.262,83.888 325.555,80.151 C367.031,44.056 405.796,29.805 423.458,39.99 L423.458,39.99 Z M476.563,174.846 C470.735,172.84 464.696,170.942 458.478,169.147 C459.5,164.976 460.438,160.859 461.272,156.812 C474.962,90.359 466.011,36.824 435.446,19.198 C406.138,2.297 358.207,19.919 309.799,62.047 C305.144,66.098 300.476,70.387 295.81,74.882 C292.701,71.908 289.597,69.034 286.501,66.285 C235.768,21.239 184.916,2.256 154.381,19.933 C125.101,36.883 116.43,87.211 128.753,150.189 C129.943,156.272 131.334,162.484 132.907,168.8 C125.71,170.843 118.762,173.021 112.114,175.338 C52.635,196.075 14.649,228.575 14.649,262.286 C14.649,297.103 55.427,332.025 117.379,353.2 C122.268,354.871 127.341,356.451 132.569,357.951 C130.872,364.782 129.396,371.476 128.157,378.005 C116.407,439.89 125.583,489.029 154.785,505.872 C184.948,523.266 235.57,505.387 284.863,462.299 C288.759,458.893 292.669,455.281 296.586,451.495 C301.663,456.384 306.732,461.011 311.774,465.351 C359.52,506.438 406.677,523.029 435.852,506.139 C465.985,488.695 475.778,435.908 463.064,371.684 C462.093,366.779 460.963,361.768 459.694,356.668 C463.249,355.617 466.739,354.532 470.142,353.404 C534.547,332.065 576.451,297.568 576.451,262.286 C576.451,228.453 537.24,195.734 476.563,174.846 L476.563,174.846 Z" fill="#53C1DE"></path></g></svg>