<?xml version="1.0" encoding="UTF-8" standalone="no"?><svg width="256px" height="256px" viewBox="0 0 256 256" version="1.1" xmlns="http://www.w3.org/2000/svg" xmlns:xlink="http://www.w3.org/1999/xlink" preserveAspectRatio="xMinYMin meet"><g><rect fill="#F05350" x="0" y="0" width="256" height="256" rx="40"></rect><path d="M193.551983,168.520297 C188.532032,176.886882 182.508091,183.580151 175.145496,188.934765 C168.117564,194.28938 160.085642,198.305341 151.384393,200.647985 C142.683144,202.990629 133.981896,203.994619 124.945984,203.659955 C115.910071,202.990629 107.208823,201.317312 98.8422373,197.970677 C90.4756519,194.624043 82.7783934,189.938756 76.4197886,183.580151 C69.7265203,177.221546 64.7065691,169.524287 60.6906081,160.488375 C56.6746471,151.1178 54.6666667,140.40857 54.6666667,128.360687 C54.6666667,116.312804 56.6746471,105.603575 60.6906081,96.5676631 C64.7065691,87.5317509 70.0611837,79.8344924 76.4197886,73.4758875 C83.1130568,67.1172827 90.4756519,62.4319949 98.8422373,59.0853608 C107.208823,55.7387266 115.910071,53.7307461 124.945984,53.3960827 C133.981896,53.0614193 142.683144,54.0654096 151.384393,56.4080534 C160.085642,58.7506973 168.117564,62.7666583 175.145496,68.1212729 C182.173427,73.4758875 188.532032,80.1691558 193.21732,88.5357412 C198.237271,96.9023265 201.249242,106.607565 202.587896,117.651458 L160.420305,117.651458 C158.746988,111.96218 156.069681,106.942229 152.388383,103.260931 C148.707086,99.5796338 144.356462,96.9023265 139.671174,95.2290094 C134.985886,93.5556924 129.965935,93.221029 124.945984,93.8903558 C119.926032,94.5596826 115.240745,96.2329997 110.89012,98.910307 C106.539496,101.587614 103.192862,105.603575 100.515554,110.623526 C97.838247,115.643478 96.4995934,121.667419 96.4995934,128.695351 C96.4995934,135.723282 97.838247,141.747224 100.515554,146.767175 C103.192862,151.787126 106.874159,155.803087 110.89012,158.480395 C115.240745,161.157702 119.926032,163.165682 124.945984,163.500346 C129.965935,164.169673 134.985886,163.835009 139.671174,162.161692 C144.356462,160.488375 148.707086,157.811068 152.388383,154.12977 C156.069681,150.448473 158.746988,145.428521 160.420305,139.739243 L202.922559,139.739243 C201.583905,150.783136 198.571935,160.488375 193.551983,168.520297 Z" fill="#FCDAD9"></path></g></svg>