<?xml version="1.0" encoding="UTF-8" standalone="no"?><svg width="256px" height="256px" viewBox="0 0 256 256" version="1.1" xmlns="http://www.w3.org/2000/svg" xmlns:xlink="http://www.w3.org/1999/xlink" preserveAspectRatio="xMidYMid"><g><rect fill="#FB0024" x="0" y="0" width="256" height="256" rx="40"></rect><path d="M192.928907,84.257311 C185.901934,78.6357326 177.785902,75.8249855 168.580567,75.8249855 C159.375232,75.8249855 147.394423,77.6519711 132.637779,81.3059971 C134.88641,89.0356675 136.010709,96.9057594 136.010709,104.916509 C136.010709,112.927258 135.799903,119.391976 135.378285,124.310858 C141.421482,123.186542 147.464588,122.624392 153.507785,122.624392 C159.550982,122.624392 165.453551,123.748691 171.215669,125.997323 C171.215669,132.181059 169.950832,137.029598 167.421122,140.543084 C161.096846,138.153913 153.788904,136.959346 145.497076,136.959346 C143.107905,136.959346 139.243127,137.380958 133.902628,138.224195 C130.67022,160.007811 124.310905,177.32904 114.824491,190.188401 C105.338078,203.047762 94.2004922,209.477346 81.4114012,209.477346 C73.6817307,209.477346 67.4278185,207.15848 62.6494767,202.520677 C57.871135,197.882875 55.482,191.699231 55.482,183.969561 C55.482,173.429101 59.8737923,163.415815 68.6575087,153.929401 C77.4412251,144.442987 89.0004225,136.889105 103.335448,131.267526 C104.319224,127.051342 104.811105,120.832564 104.811105,112.611006 C104.811105,104.389447 104.038149,97.1869079 102.492215,91.0031715 C98.9787286,91.8464083 95.0436826,92.2680203 90.6869593,92.2680203 C82.395131,92.2680203 75.8250097,90.3707661 70.9763983,86.5762006 C66.1277868,82.7816351 63.7035174,77.897962 63.7035174,71.9250349 C63.7035174,65.9521077 66.5142645,61.0684347 72.135843,57.2738692 C77.7574215,53.4793037 85.0653639,51.5820494 94.0598895,51.5820494 C107.692217,51.5820494 118.232519,56.8522002 125.68111,67.3926599 C136.643189,61.4900025 144.443012,57.4144192 149.080814,55.1657878 C160.46451,49.4036698 169.77511,46.5226541 177.012892,46.5226541 C184.250675,46.5226541 189.977572,49.8252819 194.193756,56.4306366 C198.40994,63.0359914 200.518,70.4844711 200.518,78.7762994 C199.955842,79.9006151 197.42617,81.7276007 192.928907,84.257311 L192.928907,84.257311 Z M78.2492791,189.239765 C83.3086997,189.239765 87.8761637,185.164181 91.9518081,177.012892 C96.0274525,168.861604 99.0490057,158.883451 101.016558,147.078137 C92.4436509,150.451084 85.2411115,155.369891 79.4087238,161.834706 C73.5763361,168.299522 70.660186,174.412897 70.660186,180.175015 C70.660186,182.985804 71.3628728,185.199267 72.7682674,186.815471 C74.1736621,188.431675 76.0006477,189.239765 78.2492791,189.239765 L78.2492791,189.239765 Z M82.9924622,78.8817035 C85.3113633,80.0762889 87.8761701,80.6735727 90.6869593,80.6735727 C93.4977485,80.6735727 96.0274209,80.2519606 98.2760523,79.4087238 C94.7625658,72.5222902 90.3356391,69.079125 84.9951395,69.079125 C81.3411135,69.079125 79.5141279,70.6250359 79.5141279,73.7169041 C79.5141279,75.9655355 80.6735611,77.6871181 82.9924622,78.8817035 L82.9924622,78.8817035 Z" fill="#FFFFFF"></path></g></svg>
