<?xml version="1.0" encoding="UTF-8" standalone="no"?>
<svg width="256px" height="256px" viewBox="0 0 256 256" version="1.1" xmlns="http://www.w3.org/2000/svg" xmlns:xlink="http://www.w3.org/1999/xlink">
    <defs></defs>
    <g stroke="none" stroke-width="1" fill="none" fill-rule="evenodd">
        <g transform="translate(0.000000, 40.000000)">
            <path d="M234.117787,151.168348 L255.699924,151.168348 L246.105976,176.44373 L234.117787,151.168348" fill="#333333"></path>
            <path d="M163.530107,0.628276202 L107.316367,0.628276202 L189.374333,176.44373 L246.122957,176.44373 L163.530107,0.628276202" fill="#555555"></path>
            <path d="M22.1509812,25.903658 L0.568844669,25.903658 L10.1627921,0.628276202 L22.1509812,25.903658" fill="#333333"></path>
            <path d="M66.3680415,0.628276202 L10.1543019,0.628276202 L92.2122679,176.44373 L148.969382,176.44373 L66.3765317,0.628276202" fill="#555555"></path>
            <path d="M234.117787,25.903658 L255.699924,25.903658 L246.105976,0.628276202 L234.117787,25.903658" fill="#A32A22"></path>
            <path d="M163.530107,176.44373 L107.316367,176.44373 L189.374333,0.628276202 L246.122957,0.628276202 L163.530107,176.44373" fill="#EF4923"></path>
            <path d="M22.1509812,151.168348 L0.568844669,151.168348 L10.1627921,176.44373 L22.1509812,151.168348" fill="#A32A22"></path>
            <path d="M66.3680415,176.44373 L10.1543019,176.44373 L92.2122679,0.628276202 L148.960891,0.628276202 L66.3680415,176.44373" fill="#EF4923"></path>
        </g>
    </g>
</svg>