<?xml version="1.0" encoding="UTF-8" standalone="no"?><svg width="256px" height="256px" viewBox="0 0 256 256" version="1.1" xmlns="http://www.w3.org/2000/svg" xmlns:xlink="http://www.w3.org/1999/xlink" preserveAspectRatio="xMidYMid"><g><g transform="translate(44.999815, 25.976980)"><path d="M83.1986737,197.472105 C101.495331,197.472105 119.791989,197.481632 138.08944,197.468929 C149.558098,197.460989 157.339636,191.26577 159.850117,180.071821 C161.307021,173.578075 160.908456,167.120058 158.783043,160.835122 C153.524689,145.283162 148.172649,129.76296 142.849191,114.232436 C134.33801,89.4015415 125.818095,64.5738228 117.303738,39.7437223 C115.268042,33.8057444 113.210114,27.875706 111.222055,21.921849 C110.066059,18.4610059 111.183151,16.359411 114.612236,15.2589916 C117.746765,14.2530525 119.102043,10.7350447 117.356139,8.02289972 C116.287478,6.36353698 114.694807,5.75536863 112.736124,5.75775049 C93.0754547,5.78077514 73.4155791,5.77204166 53.7549096,5.77283561 C53.4031882,5.77283561 53.049085,5.76092631 52.7005394,5.79983003 C51.0078306,5.9895849 49.7208321,6.82799976 48.920527,8.32777784 C47.385021,11.2058591 48.8871809,14.4054916 52.178118,15.3328292 C54.73703,16.053739 55.8541225,17.6853133 55.5420988,20.3379118 C55.4611156,21.0278574 55.2848579,21.7185969 55.0593751,22.3775783 C49.4350088,38.8251182 43.7995271,55.2678943 38.1640455,71.7114644 C28.3023496,100.488308 18.4739997,129.27706 8.55116933,158.03326 C6.33603917,164.453962 5.19036433,170.93818 6.15581174,177.705045 C6.93229822,183.14839 8.85207769,188.089163 12.941732,191.936661 C17.2830695,196.021552 22.6247884,197.462577 28.4389096,197.466547 C46.6918996,197.478456 64.9448896,197.471311 83.1978797,197.470517 L83.1986737,197.472105 Z M49.550926,20.4800295 C46.4410103,19.4296291 44.3886406,17.3685259 43.2453476,14.4356618 C40.5379663,7.49174485 45.6534085,0.00635162768 53.0919584,0.0039697673 C73.1908903,-0.00158790692 93.2906161,-2.34201764e-14 113.389548,0.00317581384 C118.042115,0.0039697673 122.043641,2.99161664 123.446556,7.49174485 C124.806599,11.8529312 123.1782,16.6904896 119.425976,19.2660747 C118.67966,19.7789686 117.807105,20.1084593 116.892471,20.5729221 C117.938901,23.6479038 118.976598,26.7189158 120.027793,29.7851641 C130.079244,59.0987198 140.135458,88.4106876 150.184527,117.725037 C154.824391,131.26115 159.531741,144.774238 164.06204,158.346872 C167.277551,167.979115 167.551465,177.705045 163.732549,187.249954 C159.951743,196.700382 152.653722,201.693555 142.692782,202.959911 C140.911945,203.186188 139.098555,203.231443 137.30025,203.232237 C100.708523,203.247322 64.1160022,203.277492 27.5242752,203.216358 C19.9626624,203.203655 13.1394264,200.987731 7.77627075,195.322873 C3.70567136,191.022821 1.59137329,185.774788 0.631483561,180.032917 C-0.692830811,172.106879 0.228949156,164.403943 2.85137744,156.809778 C11.661085,131.293702 20.3715484,105.742692 29.1256793,80.2075604 C35.6877046,61.0661364 42.2584635,41.9286822 48.8220767,22.7880522 C49.0753479,22.0488815 49.2928911,21.2978016 49.5493381,20.4808235 L49.550926,20.4800295 Z" fill="#000000"></path><path d="M83.209789,197.480838 C64.956799,197.480838 46.7038089,197.487984 28.4508189,197.476868 C22.6374916,197.472899 17.2949788,196.031873 12.9536413,191.946982 C8.86398699,188.09869 6.94420752,183.158712 6.16772104,177.715367 C5.20306758,170.948501 6.34794847,164.464283 8.56307863,158.043582 C18.485909,129.287381 28.3142589,100.498629 38.1759548,71.7217858 C43.8114364,55.2782157 49.4469181,38.8354396 55.0712844,22.3878997 C55.2967672,21.7289183 55.4730249,21.0381788 55.5540081,20.3482332 C55.8660318,17.6956347 54.7497333,16.0648543 52.1900273,15.3439446 C48.8990902,14.4166069 47.3969303,11.2169745 48.9324363,8.33889319 C49.7327414,6.83911511 51.018946,6.00070025 52.7124487,5.81094538 C53.0609943,5.77204166 53.4150975,5.78395096 53.7668189,5.78395096 C73.4274884,5.783157 93.087364,5.79189049 112.748034,5.76886584 C114.706717,5.76648398 116.299387,6.37385838 117.367255,8.03401506 C119.113158,10.7461601 117.75788,14.2641679 114.623352,15.2701069 C111.194267,16.3705264 110.077968,18.4721212 111.23317,21.9329643 C113.22123,27.8868213 115.278363,33.8176537 117.314854,39.7548377 C125.828417,64.5849382 134.348331,89.4126568 142.860306,114.243551 C148.183764,129.773281 153.535011,145.294277 158.793364,160.846238 C160.918778,167.131173 161.317343,173.589191 159.860438,180.082936 C157.349957,191.276886 149.568419,197.472105 138.099761,197.480044 C119.803104,197.492747 101.506446,197.48322 83.208995,197.48322" fill="#FFFFFF"></path><path d="M83.1018113,190.748113 C64.8472334,190.748113 46.5934494,190.764786 28.3396654,190.721118 C26.6009073,190.717149 24.8232455,190.502781 23.1321246,190.101835 C17.649876,188.801339 14.7051026,184.96575 13.4038129,179.743918 C11.780972,173.235881 12.5931864,166.896163 14.7908496,160.611227 C19.3941917,147.446685 23.8808227,134.240857 28.3666598,121.035029 C28.7358481,119.947313 29.2026928,119.528106 30.3872713,119.529693 C65.6197501,119.560658 100.853023,119.55907 136.085502,119.536045 C137.159721,119.535251 137.704373,119.819486 138.074355,120.910378 C142.795202,134.822031 147.631967,148.69478 152.306765,162.621517 C154.427414,168.937417 154.666394,175.377174 152.417124,181.746268 C150.548158,187.041144 146.682398,189.894613 141.140603,190.504369 C139.835344,190.648075 138.516587,190.736997 137.204182,190.737791 C119.169529,190.752876 101.13567,190.748113 83.1010174,190.748113 M119.142535,95.7523752 C119.143329,104.68197 112.093022,111.699724 103.157076,111.663997 C94.229863,111.629063 87.2716549,104.604162 87.2748307,95.6324882 C87.2788005,86.8315141 94.3616593,79.7820014 103.210271,79.7740618 C112.118428,79.7661223 119.141741,86.8092834 119.142535,95.7523752" fill="#7ED321"></path><path d="M101.628715,61.8148346 C101.629509,70.7444291 94.5792026,77.7621838 85.6432564,77.7264558 C76.7160437,77.6915219 69.7578355,70.6666217 69.7610113,61.6949476 C69.7649811,52.8939735 76.8478399,45.8444607 85.6964512,45.8365212 C94.6046091,45.8277877 101.627921,52.8717428 101.628715,61.8148346" fill="#467710"></path><path d="M59.3078201,97.9349533 C51.7080976,97.8968435 45.8010838,91.8556516 45.8511029,84.1733579 C45.8987401,76.9190052 51.9605748,71.0080217 59.3626029,70.9969063 C67.020284,70.984997 72.8947456,77.0023703 72.8590177,84.821224 C72.8272596,92.0342912 66.6899994,97.9722691 59.3070261,97.9349533 M100.282964,64.2919693 C92.6959449,64.2538596 86.7976647,58.2221951 86.8484777,50.5526047 C86.8961149,43.3093673 92.9476282,37.4079112 100.338541,37.3967959 C107.984313,37.3848866 113.848453,43.3919385 113.813519,51.1988828 C113.781761,58.4000407 107.654822,64.3284912 100.282964,64.2919693" fill="#7ED321"></path><path d="M69.7618053,28.6363134 C69.7649811,24.497434 72.9781108,21.2279337 77.0582376,21.2104667 C81.197117,21.1922058 84.505521,24.5045796 84.4959936,28.6577501 C84.4864662,32.8180663 81.1748863,36.115355 77.0368008,36.0835969 C72.9558801,36.0526327 69.7578355,32.7791626 69.7618053,28.6363134 M118.867033,105.044807 C118.88053,101.000408 122.11986,97.7650472 126.165847,97.752344 C130.230095,97.7396407 133.592488,101.098064 133.55279,105.12976 C133.513092,109.205123 130.192779,112.441277 126.083276,112.410313 C122.061108,112.380143 118.852742,109.105878 118.866239,105.0456 M63.3800074,109.056653 C63.3704799,105.316339 66.3414538,102.346159 70.0754169,102.362832 C73.8030284,102.378711 76.8041725,105.367946 76.8065543,109.066975 C76.8089362,112.729482 73.7561852,115.770324 70.0635076,115.784615 C66.3597147,115.798906 63.3887409,112.808083 63.3800074,109.057447" fill="#467710"></path></g></g></svg>
