<?xml version="1.0" encoding="UTF-8" standalone="no"?>
<svg width="512px" height="512px" viewBox="0 0 512 512" version="1.1" xmlns="http://www.w3.org/2000/svg" xmlns:xlink="http://www.w3.org/1999/xlink" preserveAspectRatio="xMidYMid">
    <g>
        <path d="M131.026603,439.722603 C100.087522,437.056434 76.947468,427.884041 66.4822707,397.374617 C65.0820519,393.289047 62.5079512,389.299382 59.5655735,386.103814 C49.0927043,374.73327 50.9801226,362.718242 61.1767845,354.201843 C71.358101,345.696952 84.4089078,346.095919 93.512248,357.500989 C109.09112,377.027328 129.891083,382.321306 153.215276,381.112897 C170.347816,380.226732 184.280952,374.11564 189.133765,355.463958 C194.297311,335.630722 184.729789,323.001899 168.046086,315.551968 C152.401998,308.562383 135.376872,304.668624 119.713602,297.717401 C95.4572093,286.956815 69.0103373,278.3752 48.5748152,262.37818 C11.5131337,233.361043 10.23951,192.344223 24.1956634,150.656065 C42.5557925,95.8211956 92.8294013,66.0291431 143.279477,78.6771469 C173.271012,86.1922938 208.057817,127.934159 209.507907,158.52798 C210.30584,175.353623 202.90578,187.265073 186.10699,191.013056 C170.436048,194.507849 156.664034,191.538618 149.797207,174.525001 C147.652763,169.204169 145.446938,163.902518 143.352365,158.55867 C132.906349,131.900806 117.680408,124.535271 91.9202185,133.715336 C72.2557759,140.724103 60.160187,168.364038 67.7405498,189.777794 C79.4870428,222.961062 107.011892,238.793125 137.037953,251.329878 C157.028474,259.673648 177.644298,266.517457 197.650164,274.826701 C227.979287,287.42867 242.913675,312.018813 245.131008,343.445094 C247.321487,374.560641 235.314131,401.268376 206.454279,414.721985 C182.608361,425.835502 156.261231,431.593662 131.026603,439.722603 L131.026603,439.722603 L131.026603,439.722603 Z M71.7263781,265.278359 C57.0988871,248.214871 41.8691099,230.445519 28.8067948,215.20807 C26.9001955,236.775275 47.7653736,263.141587 71.7263781,265.278359 L71.7263781,265.278359 L71.7263781,265.278359 Z M178.158351,174.513492 C170.094625,166.265628 162.027063,158.017763 153.963337,149.769899 C152.739585,150.95529 151.511996,152.144517 150.288243,153.333744 C155.67429,164.178726 154.956917,180.931481 178.158351,174.513492 L178.158351,174.513492 L178.158351,174.513492 Z M82.4907999,395.038361 C78.5970408,383.234325 74.7071176,371.434125 69.9233564,356.92172 C52.2537462,378.066942 74.4884535,384.458078 82.4907999,395.038361 Z M286.606888,150.482034 C251.072021,149.914274 237.342205,132.079707 250.005553,107.869348 C251.977368,104.102184 255.000307,99.2915696 258.544971,98.1829032 C319.034423,79.2281606 380.402365,65.2911883 444.060533,78.3880293 C480.293591,85.845633 501.703513,127.249911 494.667894,169.670786 C488.733266,205.489534 471.079002,233.378823 438.471168,249.091963 C411.648344,262.012338 382.830693,270.739729 355.547523,282.800792 C348.228025,286.034722 339.562012,293.787714 337.900933,300.949929 C330.665829,332.107674 326.211981,363.522446 340.15279,394.749243 C346.563108,409.112036 353.357044,425.960696 334.229674,436.909256 C320.680157,444.666084 297.605319,435.977055 290.907284,415.844595 C282.237439,389.792853 275.892337,361.608175 275.919193,334.351861 C275.957553,295.648279 283.472699,257.009913 286.315334,218.237279 C287.930384,196.159856 286.606888,173.86377 286.606888,150.482034 Z M332.840962,170.077425 C335.580022,206.057294 335.580022,206.057294 361.075509,219.948231 C380.390858,230.470971 406.081998,221.63233 415.684042,201.69168 C421.986948,188.602511 428.892134,175.778042 436.050515,163.130038 C447.666576,142.617792 436.633618,119.876704 413.129124,118.99821 C397.404477,118.407433 381.031507,118.875452 365.878452,122.623434 C331.095485,131.224231 330.094233,133.947944 332.840962,170.077425 L332.840962,170.077425 L332.840962,170.077425 Z M285.210506,360.944509 C280.626226,394.634157 301.928735,430.744457 322.490851,427.077034 C310.053841,405.022629 297.121954,382.082059 285.210506,360.944509 L285.210506,360.944509 L285.210506,360.944509 Z" fill="#FB0000"></path>
    </g>
</svg>
