<?xml version="1.0" encoding="UTF-8" standalone="no"?><svg width="256px" height="256px" viewBox="0 0 256 256" version="1.1" xmlns="http://www.w3.org/2000/svg" xmlns:xlink="http://www.w3.org/1999/xlink" preserveAspectRatio="xMinYMin meet"><g><path d="M256,225.632266 C256,242.404062 242.404062,256 225.632266,256 L30.3677343,256 C13.596242,256 0,242.404062 0,225.632266 L0,30.3677343 C0,13.5959383 13.596242,0 30.3677343,0 L225.632266,0 C242.404062,0 256,13.5959383 256,30.3677343 L256,225.632266" fill="#0067AF"></path><path d="M88.2304152,62.9614235 C77.094567,62.86121 56.8635824,63.8238671 56.8635824,63.8238671 C52.2567972,64.3279715 52.8398577,65.8979834 52.8398577,65.8979834 L52.8398577,188.58363 C52.8398577,191.128446 55.2692764,191.013049 55.2692764,191.013049 L77.0976038,191.013049 C79.0563227,191.013049 78.9530724,188.601851 78.9530724,188.601851 L79.0259549,150.204887 C79.0259549,150.204887 87.9419217,150.623962 90.0312218,150.623962 C112.047829,150.320285 136.636584,137.413998 136.788422,106.28707 C136.940261,64.0759193 99.3662633,63.0646738 88.2304152,62.9614235 L88.2304152,62.9614235 Z M87.7323843,130.884935 C87.3133096,130.921376 82.8006643,130.884935 82.8006643,130.884935 C82.8006643,130.884935 79.8671412,130.960854 78.6524318,130.314021 L78.6524318,82.7520759 C78.6524318,82.7520759 88.2425623,81.9412574 93.4050771,82.7520759 C93.4050771,82.7520759 111.589276,83.3078055 111.489063,107.601993 C111.385813,113.271649 110.101257,130.27758 87.7323843,130.884935 L87.7323843,130.884935 Z" fill="#35D0FB"></path><path d="M206.80427,99.9098458 L206.80427,116.308422 C206.80427,116.308422 206.785139,118.491255 204.431639,117.523132 C202.078444,116.555312 193.062871,111.791222 182.168446,111.791222 C177.803084,111.791222 170.647535,112.778173 170.647535,119.610913 C170.698856,123.343412 170.860109,124.811084 182.855364,130.125741 C194.850619,135.440095 212.063051,142.019872 212.063051,161.455222 C212.063051,180.890572 198.197751,192.733988 177.345139,192.835113 C167.222358,192.733684 161.960237,192.227454 149.104361,185.445428 C148.344256,185.066135 146.699843,184.231023 146.750558,180.510975 C146.801272,176.790928 146.749647,164.694852 146.749647,164.694852 C146.749647,164.694852 146.472693,161.404811 149.484565,162.948403 C152.495829,164.491995 163.833623,171.679431 177.600531,171.628716 C179.726273,171.628716 187.621884,171.93209 187.520759,164.542709 C187.44484,160.189798 184.256228,156.773428 176.360617,153.584816 C168.465006,150.396204 146.810686,141.66548 146.743573,122.078292 C146.676157,102.491103 165.048636,91.7105575 183.269276,91.7105575 C190.102017,91.7864769 199.440095,94.0640569 205.134045,97.1767497 C205.564356,97.3789988 206.80427,98.3662539 206.80427,99.9098458" fill="#35D0FB"></path></g></svg>