<?xml version="1.0" encoding="UTF-8" standalone="no"?><svg width="148px" height="181px" viewBox="0 0 148 181" version="1.1" xmlns="http://www.w3.org/2000/svg" xmlns:xlink="http://www.w3.org/1999/xlink" preserveAspectRatio="xMinYMin meet">        <g transform="translate(0.000000, -1.000000)">            <path d="M87.087,82.508 L103.977,42.558 C104.177,42.078 104.737,41.851 105.221,42.052 C105.703,42.252 105.934,42.804 105.731,43.285 L90.846,78.487 L87.087,82.508 L87.087,82.508 Z" fill="#939598"></path>            <path d="M101.657,62.177 C101.657,62.177 93.574,72.77 87.869,78.89 C82.159,85.012 73.839,94.664 73.839,94.664 L73.839,116.244 C73.899,116.24 73.954,116.228 74.014,116.228 C75.394,116.228 76.512,117.333 76.512,118.698 C76.512,120.064 75.393,121.171 74.014,121.171 C73.954,121.171 73.899,121.157 73.839,121.152 L73.839,142.924 C73.839,142.924 84.317,135.804 91.907,128.916 C100.465,121.149 109.976,109.021 109.976,109.021 L101.657,62.178 L101.657,62.177 L101.657,62.177 Z" fill="#931A2B"></path>            <path d="M67.906,22.69 L67.828,31.103 L37.295,43.333 L37.832,35.858 L67.907,22.688 L67.906,22.69 L67.906,22.69 Z" fill="#A7A9AC"></path>            <path d="M110.324,35.564 L110.919,43.036 L80.232,31.052 L80.087,22.642 L110.324,35.564 L110.324,35.564 Z M73.984,20.03 L74.016,28.623 L29.351,11.178 L30.278,1.346 L73.984,20.03 L73.984,20.03 Z M30.278,1.346 L29.351,11.178 L23.428,14.673 L24.452,5.073 L30.278,1.346 L30.278,1.346 Z" fill="#BCBEC0"></path>            <path d="M117.491,0.98 L118.491,10.806 L74.016,28.623 L73.983,20.029 L117.491,0.98 L117.491,0.98 Z" fill="#A7A9AC"></path>            <path d="M123.361,4.66 L124.46,14.253 L118.492,10.806 L117.492,0.981 L123.361,4.66 L123.361,4.66 Z" fill="#BCBEC0"></path>            <path d="M43.374,45.052 L37.294,43.334 L67.828,31.104 L23.428,14.674 L29.351,11.178 L74.016,28.623 L118.492,10.806 L124.46,14.253 L80.232,31.053 L110.919,43.036 L104.854,44.804 L74.044,33.404 L43.374,45.05 L43.374,45.052 L43.374,45.052 Z" fill="#808285"></path>            <path d="M23.91,69.727 C23.878,69.727 23.846,69.727 23.815,69.722 C23.293,69.67 22.911,69.212 22.963,68.692 L28.406,14.382 C28.458,13.867 28.912,13.487 29.446,13.539 C29.968,13.589 30.35,14.051 30.298,14.567 L24.856,68.877 C24.806,69.363 24.396,69.727 23.912,69.727 L23.91,69.727 L23.91,69.727 Z M121.779,69.727 C121.282,69.727 120.861,69.341 120.832,68.842 L117.542,14.159 C117.51,13.639 117.909,13.192 118.434,13.161 C118.971,13.126 119.41,13.525 119.442,14.045 L122.729,68.725 C122.762,69.245 122.364,69.691 121.839,69.723 C121.818,69.726 121.799,69.726 121.779,69.727 L121.779,69.727 L121.779,69.727 Z M58.244,80.656 L42.499,43.536 C42.296,43.056 42.524,42.502 43.006,42.301 C43.492,42.101 44.049,42.327 44.252,42.806 L61.728,84.006 L58.244,80.656 L58.244,80.656 Z" fill="#939598"></path>            <path d="M71.52,118.7 C71.52,117.394 72.544,116.336 73.84,116.245 L73.84,94.665 C73.84,94.665 65.517,85.012 59.81,78.89 C54.104,72.77 46.02,62.177 46.02,62.177 L37.7,109.025 C37.7,109.025 47.21,121.152 55.768,128.919 C63.358,135.807 73.838,142.926 73.838,142.926 L73.838,121.153 C72.545,121.062 71.52,120.003 71.52,118.7 L71.52,118.7 L71.52,118.7 Z" fill="#A81E2C"></path>            <path d="M74.014,120.111 C73.784,120.111 73.55,120.029 73.368,119.861 L40.598,89.734 L40.588,87.156 L74.008,117.876 L107.004,86.79 L107.137,89.262 L74.669,119.85 C74.485,120.026 74.249,120.112 74.012,120.112 L74.014,120.112 L74.014,120.111 Z" fill="#939598"></path>            <path d="M142.555,68.768 L101.658,62.178 C101.658,62.178 105.462,83.835 105.462,120.088 C105.462,156.345 100.469,181.063 100.469,181.063 L141.842,176.589 C141.842,176.589 147.071,156.809 147.071,122.675 C147.069,88.542 142.553,68.767 142.553,68.767 L142.555,68.768 L142.555,68.768 Z M123.65,164.348 C122.534,164.348 121.629,163.454 121.629,162.348 C121.629,161.246 122.533,160.348 123.65,160.348 C124.767,160.348 125.67,161.246 125.67,162.348 C125.67,163.452 124.768,164.348 123.65,164.348 L123.65,164.348 Z M42.216,120.087 C42.216,83.834 46.02,62.177 46.02,62.177 L5.124,68.767 C5.124,68.767 0.607,88.543 0.607,122.677 C0.607,156.815 5.837,176.591 5.837,176.591 L47.209,181.067 C47.209,181.062 42.216,156.346 42.216,120.087 L42.216,120.087 L42.216,120.087 Z M23.268,164.217 C22.228,164.217 21.383,163.38 21.383,162.35 C21.383,161.319 22.226,160.483 23.267,160.483 C24.307,160.483 25.151,161.319 25.151,162.348 C25.151,163.376 24.308,164.214 23.267,164.214 L23.268,164.217 L23.268,164.217 Z" fill="#CE2227"></path>            <ellipse fill="#A51724" cx="123.65" cy="80.657" rx="1.869" ry="1.85"></ellipse>            <path d="M123.652,163.29 C123.579,163.29 123.504,163.28 123.429,163.262 C122.919,163.143 122.603,162.639 122.724,162.128 C122.753,162.012 125.551,149.979 125.551,122.111 C125.551,94.189 122.747,80.983 122.72,80.855 C122.611,80.345 122.937,79.845 123.449,79.735 C123.959,79.625 124.47,79.949 124.579,80.458 C124.608,80.588 127.453,93.993 127.453,122.111 C127.453,150.245 124.692,162.072 124.575,162.562 C124.47,163.001 124.08,163.291 123.651,163.291 L123.651,163.29 L123.652,163.29 Z" fill="#939598"></path>            <ellipse fill="#A51724" cx="23.268" cy="80.657" rx="2.192" ry="2.17"></ellipse>            <path d="M23.266,163.29 C22.803,163.29 22.398,162.953 22.326,162.486 C22.303,162.33 19.938,146.474 19.938,121.62 C19.938,96.765 22.303,80.68 22.326,80.52 C22.404,80.005 22.886,79.65 23.406,79.727 C23.926,79.802 24.286,80.282 24.209,80.795 C24.184,80.955 21.841,96.915 21.841,121.622 C21.841,146.339 24.186,162.057 24.208,162.208 C24.288,162.718 23.928,163.203 23.408,163.28 C23.36,163.284 23.312,163.29 23.266,163.29 L23.266,163.29 Z" fill="#939598"></path>        </g></svg>