<?xml version="1.0" encoding="UTF-8" standalone="no"?><svg width="245px" height="306px" viewBox="0 0 245 306" version="1.1" xmlns="http://www.w3.org/2000/svg" xmlns:xlink="http://www.w3.org/1999/xlink" preserveAspectRatio="xMinYMin meet"><defs><radialGradient cx="50.0000496%" cy="50.0000332%" fx="50.0000496%" fy="50.0000332%" r="47.8362447%" id="radialGradient-1"><stop stop-color="#3F2600" stop-opacity="0.6" offset="0%"></stop><stop stop-color="#3F2600" stop-opacity="0" offset="100%"></stop></radialGradient><linearGradient x1="49.1806341%" y1="115.284037%" x2="49.482218%" y2="41.2524227%" id="linearGradient-2"><stop stop-color="#FFEED7" offset="0%"></stop><stop stop-color="#BDBFC2" offset="100%"></stop></linearGradient><linearGradient x1="47.424853%" y1="2.01930399%" x2="41.7539792%" y2="90.1259498%" id="linearGradient-3"><stop stop-color="#FFFFFF" stop-opacity="0.8" offset="0%"></stop><stop stop-color="#FFFFFF" stop-opacity="0" offset="100%"></stop></linearGradient><linearGradient x1="46.2010833%" y1="87.9169462%" x2="49.2153656%" y2="9.62806319%" id="linearGradient-4"><stop stop-color="#FFEED7" offset="0%"></stop><stop stop-color="#BDBFC2" offset="100%"></stop></linearGradient><linearGradient x1="51.7302694%" y1="85.4183168%" x2="49.8439843%" y2="13.6170405%" id="linearGradient-5"><stop stop-color="#FFEED7" offset="0%"></stop><stop stop-color="#BDBFC2" offset="100%"></stop></linearGradient><linearGradient x1="46.5577467%" y1="2.88179542%" x2="41.366084%" y2="93.3662976%" id="linearGradient-6"><stop stop-color="#FFFFFF" stop-opacity="0.65" offset="0%"></stop><stop stop-color="#FFFFFF" stop-opacity="0" offset="100%"></stop></linearGradient><linearGradient x1="70.3464893%" y1="5.9402702%" x2="64.5532702%" y2="94.0632152%" id="linearGradient-7"><stop stop-color="#FFFFFF" stop-opacity="0.65" offset="0%"></stop><stop stop-color="#FFFFFF" stop-opacity="0" offset="100%"></stop></linearGradient><linearGradient x1="50.0001016%" y1="89.8429335%" x2="50.0001016%" y2="40.624951%" id="linearGradient-8"><stop stop-color="#FFEED7" offset="0%"></stop><stop stop-color="#BDBFC2" offset="100%"></stop></linearGradient><linearGradient x1="43.5688332%" y1="98.8820969%" x2="45.3990291%" y2="23.0935729%" id="linearGradient-9"><stop stop-color="#FFEED7" offset="0%"></stop><stop stop-color="#BDBFC2" offset="100%"></stop></linearGradient><linearGradient x1="50.0000497%" y1="13.1708198%" x2="50.4000605%" y2="94.6342604%" id="linearGradient-10"><stop stop-color="#FFFFFF" stop-opacity="0.8" offset="0%"></stop><stop stop-color="#FFFFFF" stop-opacity="0" offset="100%"></stop></linearGradient><linearGradient x1="50.7997124%" y1="37.4359308%" x2="51.5998889%" y2="92.8205132%" id="linearGradient-11"><stop stop-color="#FFFFFF" stop-opacity="0.65" offset="0%"></stop><stop stop-color="#FFFFFF" stop-opacity="0" offset="100%"></stop></linearGradient><linearGradient x1="49.9997864%" y1="2.34365659%" x2="49.9997864%" y2="81.2500506%" id="linearGradient-12"><stop stop-color="#FFFFFF" stop-opacity="0.65" offset="0%"></stop><stop stop-color="#FFFFFF" stop-opacity="0" offset="100%"></stop></linearGradient><linearGradient x1="57.1519768%" y1="2.34411741%" x2="57.1424891%" y2="71.8749499%" id="linearGradient-13"><stop stop-color="#FFFFFF" stop-opacity="0.65" offset="0%"></stop><stop stop-color="#FFFFFF" stop-opacity="0" offset="100%"></stop></linearGradient><linearGradient x1="60.7929867%" y1="51.0597771%" x2="46.26386%" y2="100.240184%" id="linearGradient-14"><stop stop-color="#FFA63F" offset="0%"></stop><stop stop-color="#FFFF00" offset="100%"></stop></linearGradient><linearGradient x1="94.0272834%" y1="129.340845%" x2="19.4519732%" y2="-67.5296041%" id="linearGradient-15"><stop stop-color="#FFEED7" offset="0%"></stop><stop stop-color="#BDBFC2" offset="100%"></stop></linearGradient><linearGradient x1="50.0896249%" y1="34.2853557%" x2="40.8751913%" y2="100.443414%" id="linearGradient-16"><stop stop-color="#FFA63F" offset="0%"></stop><stop stop-color="#FFFF00" offset="100%"></stop></linearGradient><linearGradient x1="-30.5094892%" y1="9.94949957%" x2="15.6323175%" y2="94.1911071%" id="linearGradient-17"><stop stop-color="#FFFFFF" stop-opacity="0.65" offset="0%"></stop><stop stop-color="#FFFFFF" stop-opacity="0" offset="100%"></stop></linearGradient><linearGradient x1="43.3978659%" y1="2.21843607%" x2="48.7054734%" y2="102.568953%" id="linearGradient-18"><stop stop-color="#FFFFFF" stop-opacity="0.65" offset="0%"></stop><stop stop-color="#FFFFFF" stop-opacity="0" offset="100%"></stop></linearGradient><linearGradient x1="46.7413813%" y1="-3.61565237%" x2="86.7417814%" y2="75.8577744%" id="linearGradient-19"><stop stop-color="#FFFFFF" stop-opacity="0.65" offset="0%"></stop><stop stop-color="#FFFFFF" stop-opacity="0" offset="100%"></stop></linearGradient><linearGradient x1="50.0004051%" y1="17.6310424%" x2="50.8261936%" y2="99.3388942%" id="linearGradient-20"><stop stop-color="#FFA63F" offset="0%"></stop><stop stop-color="#FFFF00" offset="100%"></stop></linearGradient><linearGradient x1="55.8808165%" y1="3.11908286%" x2="55.3923342%" y2="94.5308038%" id="linearGradient-21"><stop stop-color="#FFFFFF" stop-opacity="0.65" offset="0%"></stop><stop stop-color="#FFFFFF" stop-opacity="0" offset="100%"></stop></linearGradient></defs><g transform="translate(-6.000000, 0.000000)"><path d="M256.44866,270.966045 C256.44866,289.922712 199.059505,305.290127 128.266393,305.290127 C57.4732815,305.290127 0.0841255225,289.922712 0.0841255225,270.966045 C0.0841255225,252.009377 57.4732815,236.641962 128.266393,236.641962 C199.059505,236.641962 256.44866,252.009377 256.44866,270.966045 L256.44866,270.966045 Z" fill="url(#radialGradient-1)"></path><path d="M58.0853526,234.045998 C45.6756533,216.184745 43.2555735,158.115578 72.212832,122.393071 C86.5614775,105.255181 90.2220839,93.3116489 91.353413,77.2768185 C92.1233376,58.9965133 78.4243332,4.41833631 130.089656,0.259967348 C182.419033,-3.91503066 179.608725,47.7414237 179.307739,75.0767963 C179.057749,98.1579059 196.254949,111.239973 208.018333,129.22927 C229.790737,162.282261 227.949348,219.192384 203.917057,249.99602 C173.476488,288.557659 147.404369,271.834386 130.089656,273.237877 C97.6669057,275.01275 96.5948868,292.300856 58.0853526,234.045998 L58.0853526,234.045998 Z" fill="#000000"></path><path d="M182.846239,225.627658 C192.114622,217.583224 216.675285,180.916771 180.128091,156.723086 C167.241564,148.293771 192.905804,118.004637 204.396816,133.313948 C224.662324,160.78761 210.065902,203.291275 197.031109,218.312869 C188.166933,228.971399 174.958691,232.840756 182.846239,225.627658 L182.846239,225.627658 L182.846239,225.627658 Z" fill="url(#linearGradient-2)"></path><path d="M220.573766,127.529241 C205.759105,139.500422 178.784742,181.645845 218.127841,209.021382 C231.049291,217.556685 206.677071,244.470052 192.991641,230.703565 C145.409909,182.851274 194.233202,127.82722 211.040013,108.910632 C226.060733,92.4596331 239.366032,112.797195 220.573766,127.529241 L220.573766,127.529241 Z" stroke="#000000" stroke-width="1.56611171" fill="#000000" transform="translate(201.260293, 168.674153) scale(-1, 1) translate(-201.260293, -168.674153) "></path><path d="M160.650161,26.3486365 C161.150413,35.2080607 155.361198,43.7461841 145.463258,48.7467781 C135.565318,53.7473722 123.062386,54.4507276 112.664195,50.5918973 C102.266004,46.733067 95.5522869,38.898299 95.0520363,30.0388748 C94.2787153,16.3433919 108.336455,4.41492131 126.450877,3.39589013 C144.565299,2.37685895 159.87684,12.6531535 160.650161,26.3486365 L160.650161,26.3486365 L160.650161,26.3486365 Z" fill="url(#linearGradient-3)"></path><path d="M117.253077,58.9888548 C117.768405,67.9180419 113.512834,75.4280776 107.747995,75.7629891 C101.983155,76.0979005 96.892074,69.1308635 96.3767467,60.2016764 C96.0433884,54.4255051 97.7248556,48.9725215 100.787756,45.8968117 C103.850656,42.8211019 107.829663,42.5899394 111.225921,45.2904009 C114.62218,47.9908624 116.919719,53.2126835 117.253077,58.9888548 L117.253077,58.9888548 L117.253077,58.9888548 Z" fill="url(#linearGradient-4)"></path><path d="M127.769126,59.6727818 C127.487045,49.3517489 133.759398,40.8070795 141.778819,40.5877287 C149.798241,40.3683779 156.527938,48.5574092 156.81002,58.8784422 C156.992494,65.5549799 154.393526,71.8000552 149.992122,75.2612088 C145.590718,78.7223624 140.055554,78.8737627 135.471675,75.6583786 C130.887796,72.4429946 127.951601,66.3493195 127.769126,59.6727818 L127.769126,59.6727818 L127.769126,59.6727818 Z" fill="url(#linearGradient-5)"></path><path d="M134.411068,62.0061159 C134.423193,56.3392401 137.389112,51.7516541 141.035634,51.7594559 C144.682156,51.7672577 147.628418,56.3674928 147.616294,62.0343687 C147.608451,65.7001946 146.342753,69.0848649 144.295976,70.9134072 C142.249199,72.7419494 139.732297,72.7365645 137.693363,70.8992808 C135.654429,69.0619971 134.403225,65.6719418 134.411068,62.0061159 L134.411068,62.0061159 L134.411068,62.0061159 Z" fill="#000000"></path><path d="M111.222201,62.0627792 C111.782366,66.7639145 110.135072,70.8358496 107.542867,71.1577008 C104.950663,71.479552 102.395163,67.9294408 101.834998,63.2283055 C101.472635,60.1872042 102.032393,57.2660366 103.303417,55.5651784 C104.57444,53.8643202 106.363631,53.6421722 107.997018,54.9824153 C109.630405,56.3226584 110.859838,59.0216779 111.222201,62.0627792 L111.222201,62.0627792 L111.222201,62.0627792 Z" fill="#000000"></path><path d="M135.942044,58.7657727 C136.18151,55.5944703 138.094419,53.1547328 140.214646,53.3164662 C142.334874,53.4781997 143.859532,56.1801591 143.620066,59.3514614 C143.465159,61.4029343 142.590307,63.2427576 141.325059,64.1778877 C140.059812,65.1130178 138.596389,65.0013861 137.486048,63.8850433 C136.375708,62.7687005 135.787137,60.8172456 135.942044,58.7657727 L135.942044,58.7657727 L135.942044,58.7657727 Z" fill="url(#linearGradient-6)"></path><path d="M109.034908,59.5776084 C109.333954,62.2337094 108.309477,64.5341023 106.746675,64.7156799 C105.183872,64.8972575 103.674545,62.89126 103.375499,60.235159 C103.18205,58.516963 103.542634,56.8666201 104.321423,55.9057987 C105.100212,54.9449772 106.17889,54.8196488 107.151128,55.5770234 C108.123366,56.3343979 108.841459,57.8594123 109.034908,59.5776084 L109.034908,59.5776084 L109.034908,59.5776084 Z" fill="url(#linearGradient-7)"></path><path d="M77.5274736,157.88776 C84.6424861,141.755927 99.7627192,113.418377 100.084768,91.505735 C100.084768,74.077391 152.288318,69.9151419 156.477728,87.3163252 C160.667138,104.717508 171.300301,130.81956 178.067767,143.387236 C184.834678,155.954357 204.568362,195.876805 183.546482,230.715201 C164.613209,261.558747 107.205324,285.960203 76.560772,226.526346 C66.2491034,205.902454 68.0882754,180.344726 77.5274736,157.88776 L77.5274736,157.88776 Z" fill="url(#linearGradient-8)"></path><path d="M69.3655306,146.063731 C63.6177652,157.689284 51.6658901,188.264149 80.9184166,204.992072 C112.407663,222.751746 112.305519,259.303392 74.514588,241.912248 C39.9657962,226.192841 55.1448673,162.672008 64.7811422,147.473637 C71.0985048,136.828748 80.5771146,123.799097 69.3655306,146.063731 L69.3655306,146.063731 L69.3655306,146.063731 Z" fill="url(#linearGradient-9)"></path><path d="M76.3141079,132.87491 C66.6332343,148.676934 43.4013547,185.984188 74.4915649,205.33485 C116.379566,231.02949 104.519734,256.724685 66.2884588,233.589808 C12.4608059,201.293992 59.733845,136.245617 81.3272096,111.45615 C105.96258,83.630221 86.0687036,116.493087 76.3141079,132.87491 L76.3141079,132.87491 Z" stroke="#000000" stroke-width="1.5625" fill="#000000"></path><path d="M170.657509,164.011019 C170.657509,181.621309 153.75585,204.497516 124.738024,204.292138 C94.8125246,204.539352 82.0398542,181.621309 82.0398542,164.011019 C82.0398542,146.40073 101.890297,132.108534 126.34897,132.108534 C150.807067,132.108534 170.657509,146.40073 170.657509,164.011019 L170.657509,164.011019 Z" fill="url(#linearGradient-10)"></path><path d="M154.866841,108.585666 C154.54476,126.83744 142.667766,131.14297 127.637326,131.14297 C112.60636,131.14297 101.696134,128.448643 100.407284,108.585666 C100.407284,96.1342199 112.60636,88.9285262 127.637326,88.9285262 C142.667766,88.9285262 154.866841,96.1342199 154.866841,108.585666 L154.866841,108.585666 Z" fill="url(#linearGradient-11)"></path><path d="M63.9930968,136.619216 C73.8131001,121.655296 94.4879873,98.7249562 67.8604575,139.84137 C46.2698644,173.677589 59.8768547,195.422832 66.8937559,201.390441 C87.1407225,219.439602 86.275458,231.516167 70.4385132,222.013778 C36.2796906,201.711936 43.3692053,167.554776 63.9930968,136.619216 L63.9930968,136.619216 Z" fill="url(#linearGradient-12)"></path><path d="M206.103222,142.741475 C197.611879,125.169567 170.553657,80.7140414 207.392527,132.429806 C240.906143,179.15575 217.382147,211.70211 213.192737,214.924818 C209.003881,218.146972 194.824852,224.591834 199.014262,213.313464 C203.203117,202.035093 224.08753,180.624648 206.103222,142.741475 L206.103222,142.741475 Z" fill="url(#linearGradient-13)"></path><path d="M56.5820873,280.984794 C34.1650308,269.113875 1.56656656,283.270732 13.4009011,251.015935 C15.7710938,243.678093 9.86722976,232.719555 13.7229502,225.55909 C18.2344091,216.857667 27.9019795,218.791624 33.7027435,212.99086 C39.4220251,206.953964 43.0477105,196.556379 53.6819825,198.167733 C64.3157002,199.779087 71.3891401,212.835102 78.8162243,228.781244 C84.2943849,240.220916 103.727083,256.310067 102.457178,269.111104 C100.962782,288.788803 78.6072527,292.497079 56.5820873,280.984794 L56.5820873,280.984794 Z" stroke="#E68C3F" stroke-width="7.8125" fill="url(#linearGradient-14)"></path><path d="M218.196846,206.752356 C214.357589,212.882991 199.252501,222.541918 189.6047,219.919808 C179.755648,217.345093 175.91251,203.376392 178.351476,192.845709 C180.712103,180.983568 191.42821,180.475578 204.561502,186.436867 C218.672549,193.032174 222.773523,198.62336 218.196846,206.752356 L218.196846,206.752356 L218.196846,206.752356 Z" fill="url(#linearGradient-15)"></path><path d="M188.254622,200.234507 C212.134915,205.236488 235.007147,176.752119 234.903785,216.086994 C234.92977,224.472297 243.932887,233.805025 242.871771,242.556231 C241.732322,253.126932 232.586089,254.425036 229.418513,262.495913 C226.395802,270.778897 225.303588,282.151286 215.626828,284.398461 C205.950545,286.645432 196.9792,276.470995 185.537284,262.852773 C177.199597,253.13813 156.213327,243.858054 153.262774,230.274568 C148.332628,209.561878 165.713412,195.764359 188.254622,200.234507 L188.254622,200.234507 L188.254622,200.234507 Z" stroke="#E68C3F" stroke-width="7.81591272" fill="url(#linearGradient-16)"></path><path d="M194.33196,208.363721 C233.906891,223.337957 221.432073,238.275643 219.054083,246.040074 C216.788711,254.010416 216.025864,264.978453 208.612253,267.068684 C201.199008,269.158722 194.244336,259.265027 185.370187,246.027179 C178.905012,236.582449 162.869871,227.415059 160.377437,214.319002 C157.585658,198.913764 177.231339,202.03856 194.33196,208.363721 L194.33196,208.363721 L194.33196,208.363721 Z" fill="url(#linearGradient-17)"></path><path d="M52.3615033,255.124791 C13.5132943,229.813502 30.3553814,221.218227 35.7435699,217.241776 C42.1835856,212.142102 41.5890116,202.203996 49.9712097,203.130647 C58.3529745,204.057321 63.898728,214.826261 70.3803084,228.201475 C75.1474388,237.790329 90.1885397,250.461932 89.8926728,261.526798 C89.3951088,274.494385 69.1808956,265.948742 52.3615033,255.124791 L52.3615033,255.124791 L52.3615033,255.124791 Z" fill="url(#linearGradient-18)"></path><path d="M216.193462,205.990342 C213.172042,210.980517 200.71646,218.899085 192.415524,216.835137 C183.945443,214.810837 180.131038,203.519177 181.78973,194.973386 C183.329545,185.349511 192.415261,184.871199 203.809077,189.618386 C216.058621,194.873075 219.762967,199.376759 216.193462,205.990342 L216.193462,205.990342 L216.193462,205.990342 Z" fill="#000000"></path><path d="M208.574239,202.817146 C206.482199,206.217533 197.925782,211.582532 192.262788,210.137676 C186.483965,208.719252 183.937206,200.98205 185.116829,195.144656 C186.220976,188.569531 192.434036,188.279013 200.196761,191.571264 C208.541692,195.214017 211.049625,198.308792 208.574239,202.817146 L208.574239,202.817146 L208.574239,202.817146 Z" fill="url(#linearGradient-19)"></path><path d="M105.936528,71.3524454 C109.89812,67.599825 119.6893,56.3497242 138.06439,68.1624409 C141.479996,70.3851894 144.251502,70.5886181 150.824963,73.4033605 C163.976317,78.8072446 157.688322,91.8388701 143.760946,96.1895817 C137.797771,98.1235392 132.377813,105.366595 121.517386,104.747441 C112.241706,104.205888 109.811095,98.1656661 104.113431,94.8221202 C93.9868988,89.1067186 92.4925023,81.3780944 97.9606854,77.2768185 C103.429423,73.1755426 105.568472,71.7011009 105.936528,71.3524454 L105.936528,71.3524454 Z" stroke="#E68C3F" stroke-width="4.6875" fill="url(#linearGradient-20)"></path><path d="M150.999567,81.8376103 C145.521407,82.1596594 133.598384,94.0826821 121.030709,94.0826821 C108.463034,94.0826821 101.05147,82.4817085 99.1180667,82.4817085" stroke="#E68C3F" stroke-width="3.125"></path><path d="M112.182381,70.3238387 C114.172321,68.535592 120.449247,63.6283473 128.773469,68.6523431 C130.5273,69.6471049 132.338487,70.7298262 135.032019,72.2087617 C140.367295,75.3119111 137.724716,79.7838486 131.332798,82.6133461 C128.432114,83.800668 123.650079,86.4209644 120.008771,86.2376493 C115.962347,85.8657363 113.344548,83.2266857 110.66271,81.5079086 C105.742852,78.2581598 106.041607,75.6341654 108.326961,73.4494403 C110.054619,71.9493734 111.997504,70.4899845 112.182381,70.3238387 L112.182381,70.3238387 Z" fill="url(#linearGradient-21)"></path></g></svg>