<?xml version="1.0" encoding="UTF-8" standalone="no"?><svg width="256px" height="256px" viewBox="0 0 256 256" version="1.1" xmlns="http://www.w3.org/2000/svg" xmlns:xlink="http://www.w3.org/1999/xlink" preserveAspectRatio="xMinYMin meet"><g><path d="M256,225.632266 C256,242.404062 242.404062,256 225.632266,256 L30.3677343,256 C13.596242,256 0,242.404062 0,225.632266 L0,30.3677343 C0,13.5959383 13.596242,0 30.3677343,0 L225.632266,0 C242.404062,0 256,13.5959383 256,30.3677343 L256,225.632266" fill="#DB7C00"></path><path d="M156.849348,187.560237 C156.849348,187.560237 119.967127,65.6744769 119.670434,64.681452 C119.421115,63.772242 117.893314,63.772242 117.599051,63.772242 L89.1293001,63.772242 C87.4338695,63.7849964 87.3008588,64.2377794 87.3072361,64.643796 C87.3136133,65.0501163 87.3831554,68.8967972 87.3072361,71.8576512 C87.2313167,74.8185053 86.9276394,74.951516 86.9276394,74.951516 L53.826809,188.061609 C53.2100403,190.107786 55.0415184,189.969917 55.0415184,189.969917 C55.0415184,189.969917 75.1601423,190.028527 76.2989324,189.967791 C77.4377224,189.906752 77.6654804,188.812603 77.6654804,188.812603 L86.4721234,157.685068 L121.401091,157.760683 C121.401091,157.760683 130.581257,187.672598 131.036773,188.963227 C131.430643,190.139976 131.971492,190.102017 132.099644,190.102017 L155.786477,190.102017 C157.608541,190.102017 156.849348,187.560237 156.849348,187.560237 L156.849348,187.560237 Z M91.4068802,136.04745 L103.806026,85.8890629 L116.915777,136.04745 L91.4068802,136.04745 L91.4068802,136.04745 Z M53.826809,188.061609 C53.2100403,190.107786 54.7569727,189.96931 55.0415184,189.969917 C55.3260641,189.970828 75.1601423,190.028527 76.2989324,189.967791 L53.826809,188.061609 Z" fill="#FFD539"></path><path d="M194.353499,73.8950225 C194.353499,81.1626287 188.462159,87.0542728 181.194249,87.0542728 C173.926339,87.0542728 168.034999,81.1626287 168.034999,73.8950225 C168.034999,66.6274164 173.926339,60.7357722 181.194249,60.7357722 C188.462159,60.7357722 194.353499,66.6274164 194.353499,73.8950225" fill="#FFD539"></path><path d="M170.970344,96.569395 L191.316726,96.569395 C191.316726,96.569395 193.495915,96.4682705 193.52112,98.6195208 C193.546325,100.770467 193.518387,188.071023 193.518387,188.071023 C193.518387,188.071023 193.745537,190.102017 191.873063,190.102017 L170.059312,190.102017 C170.059312,190.102017 168.237248,190.234724 168.237248,188.033367 L168.237248,98.9988138 C168.237248,98.9988138 167.990662,96.569395 170.970344,96.569395" fill="#FFD539"></path></g></svg>