<svg xmlns="http://www.w3.org/2000/svg" width="900" height="161" preserveAspectRatio="xMinYMin meet"><g><g stroke="#848484" fill="#d8d8d8" fill-rule="evenodd"><path d="M.097.268v86.815l64.619 36.836v-25.039l-43.229-24.642v-38.706l43.229 24.642v-23.07l-64.619-36.836zm0 0" fill="#002a41"/><path d="M129.335.268v86.815l-64.619 36.836v-25.039l43.229-24.642v-38.706l-43.229 24.642v-23.07l64.619-36.836zm0 0" fill="#0071b5"/><path d="M.097 160.793v-86.815l64.619-36.836v25.039l-43.229 24.642v36.737l43.229-24.642v25.039l-64.619 36.836zm0 0" fill="#0071b5"/><path d="M129.335 160.793v-86.815l-64.619-36.836v25.039l43.229 24.642v36.737l-43.229-24.642v25.039l64.619 36.836zm0 0" fill="#002a41"/></g><g style="line-height:125%;-inkscape-font-specification:Open Sans Light" font-size="120.096" letter-spacing="0" word-spacing="0" fill="#002a41" font-family="Open Sans Light"><path d="M182.526 38.79h23.515c10.594 0 18.374 1.798 23.339 5.395 4.965 3.597 7.447 9.031 7.447 16.302 0 4.965-1.515 9.099-4.545 12.402-3.03 3.304-7.457 5.424-13.282 6.362v.352c6.841 1.016 11.875 3.176 15.1 6.48 3.225 3.304 4.838 7.907 4.838 13.81 0 7.897-2.619 13.976-7.858 18.237-5.239 4.261-12.666 6.392-22.283 6.392h-26.271zm5.981 38.175h18.882c8.053 0 13.908-1.339 17.563-4.017 3.655-2.678 5.483-6.871 5.483-12.578 0-5.708-2.062-9.852-6.187-12.432-4.124-2.58-10.272-3.87-18.442-3.87h-17.299zm0 5.278v37.002h20.172c15.872 0 23.808-6.45 23.808-19.351 0-11.767-8.366-17.651-25.098-17.651z"/><path d="M299.103 94.264h-34.832l-11.963 30.259h-6.626l34.481-86.084h3.812l33.777 86.084h-6.744zm-32.663-5.395h30.669l-11.669-30.904c-.977-2.424-2.15-5.786-3.518-10.086-1.056 3.753-2.209 7.154-3.46 10.204z"/><path d="M366.423 42.954c-10.751 0-19.215 3.44-25.391 10.321-6.177 6.88-9.265 16.302-9.265 28.265 0 12.236 2.912 21.736 8.737 28.499 5.825 6.763 14.152 10.145 24.981 10.145 7.193 0 13.8-.919 19.82-2.756v5.278c-5.669 1.994-12.745 2.991-21.228 2.991-12.041 0-21.521-3.89-28.441-11.669-6.92-7.78-10.379-18.648-10.379-32.604 0-8.718 1.652-16.4 4.955-23.046 3.303-6.646 8.053-11.777 14.25-15.393 6.196-3.616 13.399-5.424 21.609-5.424 8.366 0 15.852 1.564 22.459 4.691l-2.404 5.395c-6.255-3.127-12.823-4.691-19.703-4.691z"/><path d="M462.065 124.523h-7.33l-32.897-45.27-11.435 10.086v35.184h-5.981v-85.733h5.981v44.567l9.5-9.5 33.601-35.067h7.623l-35.126 36.24z"/><path d="M474.321 38.79h23.515c10.594 0 18.374 1.798 23.339 5.395 4.965 3.597 7.447 9.031 7.447 16.302 0 4.965-1.515 9.099-4.545 12.402-3.03 3.304-7.457 5.424-13.282 6.362v.352c6.841 1.016 11.875 3.176 15.1 6.48 3.225 3.304 4.838 7.907 4.838 13.81 0 7.897-2.619 13.976-7.858 18.237-5.239 4.261-12.666 6.392-22.283 6.392h-26.271zm5.981 38.175h18.882c8.053 0 13.908-1.339 17.563-4.017 3.655-2.678 5.483-6.871 5.483-12.578 0-5.708-2.062-9.852-6.187-12.432-4.124-2.58-10.272-3.87-18.442-3.87h-17.299zm0 5.278v37.002h20.172c15.872 0 23.808-6.45 23.808-19.351 0-11.767-8.366-17.651-25.098-17.651z"/><path d="M621.685 81.539c0 13.605-3.401 24.365-10.203 32.282-6.802 7.917-16.185 11.875-28.147 11.875-11.924 0-21.287-3.958-28.089-11.875s-10.203-18.716-10.203-32.399c0-13.644 3.43-24.385 10.291-32.223 6.861-7.838 16.234-11.757 28.118-11.757 11.963 0 21.326 3.939 28.089 11.816 6.763 7.877 10.145 18.638 10.145 32.282zm-70.134 0c0 12.275 2.737 21.765 8.21 28.47 5.473 6.705 13.331 10.057 23.573 10.057 10.321 0 18.208-3.323 23.661-9.969 5.454-6.646 8.18-16.165 8.18-28.558 0-12.354-2.727-21.824-8.18-28.411-5.454-6.587-13.302-9.881-23.544-9.881-10.203 0-18.071 3.323-23.603 9.969-5.532 6.646-8.298 16.087-8.298 28.323z"/><path d="M703.664 124.523h-6.04l-50.783-76.115h-.469c.469 9.07.704 15.911.704 20.524v55.591h-5.747v-85.733h5.981l50.724 75.998h.352c-.352-7.037-.528-13.722-.528-20.055v-55.943h5.805z"/><path d="M774.737 124.523h-46.854v-85.733h46.854v5.512h-40.872v32.428h38.585v5.512h-38.585v36.768h40.872z"/><path d="M791.625 119.949c0-3.831 1.564-5.747 4.691-5.747 3.206 0 4.809 1.916 4.809 5.747s-1.603 5.747-4.809 5.747c-3.128 0-4.691-1.916-4.691-5.747z"/><path d="M808.807 146.161c-3.597 0-6.548-.528-8.855-1.583v-5.16c3.049.782 5.962 1.173 8.737 1.173 9.461 0 14.191-5.16 14.191-15.481v-86.319h5.981v85.733c0 14.425-6.685 21.638-20.055 21.638z"/><path d="M899.993 102.415c0 7.154-2.629 12.823-7.887 17.006-5.258 4.183-12.246 6.274-20.964 6.274-10.477 0-18.511-1.153-24.101-3.46v-5.981c6.177 2.619 14.054 3.929 23.632 3.929 7.037 0 12.617-1.613 16.742-4.838 4.124-3.225 6.187-7.457 6.187-12.696 0-3.245-.684-5.933-2.052-8.063-1.368-2.131-3.597-4.075-6.685-5.835-3.088-1.759-7.623-3.655-13.605-5.688-8.757-3.01-14.807-6.265-18.149-9.764-3.343-3.499-5.014-8.161-5.014-13.986 0-6.411 2.512-11.64 7.535-15.686 5.024-4.046 11.484-6.069 19.381-6.069 8.053 0 15.618 1.525 22.694 4.574l-2.17 5.16c-7.115-2.971-13.917-4.457-20.407-4.457-6.333 0-11.376 1.466-15.129 4.398-3.753 2.932-5.63 6.92-5.629 11.963 0 3.167.577 5.766 1.73 7.799 1.153 2.033 3.04 3.861 5.659 5.483 2.619 1.623 7.115 3.567 13.487 5.835 6.685 2.307 11.709 4.545 15.071 6.714 3.362 2.17 5.815 4.633 7.359 7.389 1.544 2.756 2.316 6.089 2.316 9.998z"/></g></g></svg>