<svg width="437" height="437" viewBox="0 0 437 437" xmlns="http://www.w3.org/2000/svg" preserveAspectRatio="xMinYMin meet"><rect stroke="#979797" fill="#563D7C" width="437" height="437" rx="80"/><path d="M175.264 203.633v-67.498h56.496c6.145 0 11.944.347 17.395 1.041 5.451.694 10.259 2.23 14.421 4.609 4.163 2.379 7.434 5.749 9.813 10.11 2.379 4.361 3.568 10.308 3.568 17.841 0 11.299-3.519 19.774-10.556 25.423-7.037 5.65-18.584 8.474-34.641 8.474h-56.496zm-28.248-91.286v212.308h102.586c10.506 0 19.774-1.735 27.802-5.204 8.028-3.469 14.768-8.028 20.22-13.678 5.451-5.65 9.565-12.142 12.34-19.476 2.775-7.335 4.163-14.867 4.163-22.599 0-13.083-3.469-24.184-10.407-33.303-6.938-9.119-16.949-15.066-30.032-17.841v-.595c10.11-3.965 17.89-10.06 23.342-18.287 5.451-8.227 8.177-17.99 8.177-29.289 0-10.705-2.428-19.724-7.285-27.059-4.857-7.335-10.754-13.083-17.692-17.246-3.172-1.982-6.988-3.469-11.448-4.46-4.46-.991-9.267-1.735-14.421-2.23-5.154-.496-10.358-.793-15.611-.892-5.253-.099-10.159-.149-14.719-.149h-77.014zm28.248 188.52v-73.445h64.525c5.947 0 11.696.545 17.246 1.635 5.551 1.09 10.457 2.973 14.719 5.65 4.262 2.676 7.682 6.294 10.259 10.853s3.866 10.308 3.866 17.246c0 11.894-3.519 21.211-10.556 27.951-7.037 6.74-16.8 10.11-29.289 10.11h-70.769z" fill="#fff"/></svg>