<svg xmlns="http://www.w3.org/2000/svg" width="411.438" height="74.257" viewBox="0 0 411.438 74.257" preserveAspectRatio="xMinYMin meet"><g fill="#fff"><path d="M25.857 18.232c4.618 0 8.85 1.67 12.14 4.429l4.472-5.33c-4.496-3.779-10.29-6.061-16.61-6.061-14.259 0-25.859 11.6-25.859 25.858 0 14.26 11.6 25.86 25.86 25.856 6.32 0 12.114-2.282 16.61-6.061l-4.472-5.33c-3.286 2.761-7.521 4.429-12.139 4.429-10.419 0-18.896-8.476-18.896-18.894-.001-10.418 8.477-18.898 18.897-18.896zM168.993 12.763h-13.923c-1.922 0-3.48 1.559-3.48 3.48v41.769c0 1.92 1.56 3.48 3.48 3.48h13.923c13.436 0 24.365-10.93 24.365-24.365 0-13.437-10.928-24.367-24.368-24.364zm0 41.769h-10.442v-34.807h10.442c9.597 0 17.4 7.81 17.4 17.404.004 9.601-7.803 17.401-17.403 17.403zM212.206 16.244v41.769c0 1.92 1.56 3.48 3.48 3.48h29.007v-6.961h-25.525v-13.924h16.243v-6.961h-16.243v-13.922h25.525v-6.961h-29.007c-1.921-.004-3.476 1.556-3.476 3.48zM317.569 16.244v41.769c0 1.92 1.56 3.48 3.48 3.48h29.006v-6.961h-25.525v-13.924h16.244v-6.961h-16.244v-13.922h25.525v-6.961h-29.005c-1.922-.004-3.48 1.556-3.48 3.48zM284.443 12.763h-15.084c-1.922 0-3.48 1.559-3.48 3.48v45.25h6.962v-20.885h11.603c7.677 0 13.923-6.246 13.923-13.922-.001-7.676-6.247-13.926-13.927-13.923zm0 20.884h-11.603v-13.922h11.603c3.839 0 6.96 3.12 6.96 6.961s-3.121 6.964-6.963 6.961zM404.476 12.763v35.636l-28.652-34.384c-.938-1.127-2.481-1.545-3.859-1.045-1.378.5-2.296 1.808-2.296 3.273v45.25h6.962v-35.635l28.652 34.383c.675.81 1.66 1.25 2.67 1.25.396 0 .797-.066 1.185-.207 1.378-.5 2.296-1.808 2.296-3.273v-45.25h-6.958zM131.815 25.261l-.056-.268-.05-.155-.082-.232-.071-.155-.109-.212-.091-.148-.135-.194-.109-.137-.158-.173-.128-.125-.181-.151-.145-.109-.053-.04-33.936-22.626c-1.071-.715-2.468-.715-3.539 0l-33.938 22.625-.053.04-.145.109-.181.15-.127.125-.159.173-.109.14-.135.194-.091.148-.108.21-.071.155-.083.232-.049.15-.056.268-.026.138c-.018.138-.028.276-.028.417v22.63c0 .14.01.28.03.417l.03.138.06.27.05.155.08.233.07.15.11.213.09.146.14.19.11.138.16.173.13.12.18.152.14.109.05.039 33.929 22.637c.536.36 1.15.54 1.77.537s1.234-.18 1.77-.537l33.938-22.625.053-.039.145-.109.181-.152.128-.124.158-.173.109-.138.135-.194.091-.146.109-.213.071-.154.082-.233.05-.155.056-.268.025-.138c.018-.138.028-.276.028-.417v-22.626l-.028-.417-.033-.138zm-37.074 19.416l-11.285-7.548 11.285-7.549 11.286 7.549-11.286 7.548zm-3.19-20.64l-13.834 9.253-11.167-7.47 25.001-16.667v14.884zm-19.573 13.091l-7.982 5.339v-10.678l7.982 5.339zm5.739 3.842l13.834 9.252v14.884l-25.001-16.669 11.167-7.469zm20.215 9.25l13.834-9.252 11.168 7.469-25.002 16.667v-14.884zm19.573-13.09l7.983-5.34v10.679l-7.983-5.341zm-5.739-3.84l-13.834-9.252v-14.885l25.002 16.667-11.168 7.47z"/></g></svg>