<svg width="364" height="512" viewBox="0 0 364 512" xmlns="http://www.w3.org/2000/svg" preserveAspectRatio="xMinYMin meet"><g fill="none"><path d="M181.778 512l-148.134-41.123-33.011-370.257h362.734l-33.046 370.199-148.543 41.181z" fill="#264DE4"/><path d="M302.03 447.246l28.24-316.352h-148.27v349.629l120.03-33.277z" fill="#2965F1"/><path d="M76.31 268.217l4.07 45.41h101.62v-45.41h-105.69z" fill="#EBEBEB"/><path d="M68.132 176.305l4.128 45.411h109.74v-45.411h-113.868z" fill="#EBEBEB"/><path d="M182 386.153l-.199.053-50.574-13.656-3.233-36.217h-45.585l6.362 71.301 93.02 25.823.209-.058v-47.246z" fill="#EBEBEB"/><path d="M86 0h55v23h-32v23h32v23h-55v-69z" fill="#000"/><path d="M152 0h55v20h-32v4h32v46h-55v-21h32v-4h-32v-45z" fill="#000"/><path d="M218 0h55v20h-32v4h32v46h-55v-21h32v-4h-32v-45z" fill="#000"/><path d="M287.399 268.217l8.198-91.912h-113.754v45.411h63.988l-4.132 46.501h-59.856v45.41h55.918l-5.271 58.894-50.647 13.67v47.244l93.094-25.801.683-7.672 10.671-119.551 1.108-12.194z" fill="#fff"/></g></svg>