<svg width="96" height="91" viewBox="0 0 96 91" xmlns="http://www.w3.org/2000/svg" preserveAspectRatio="xMinYMin meet"><defs><linearGradient x1="-89.682%" y1="-92.82%" x2="106.623%" y2="106.042%" id="a"><stop stop-color="#F9A03C" offset="0%"/><stop stop-color="#F7974E" offset="100%"/></linearGradient><linearGradient x1="-258.924%" y1="-255.012%" x2="97.62%" y2="99.754%" id="b"><stop stop-color="#F9A03C" offset="0%"/><stop stop-color="#F7974E" offset="100%"/></linearGradient><linearGradient x1="-254.734%" y1="-261.968%" x2="99.117%" y2="101.691%" id="c"><stop stop-color="#F9A03C" offset="0%"/><stop stop-color="#F7974E" offset="100%"/></linearGradient><linearGradient x1="1.723%" y1="-1.822%" x2="90.578%" y2="92.107%" id="d"><stop stop-color="#F26D58" offset="0%"/><stop stop-color="#F9A03C" offset="100%"/></linearGradient><linearGradient x1="15.844%" y1="-14.565%" x2="120.126%" y2="81.316%" id="e"><stop stop-color="#B84E51" offset="0%"/><stop stop-color="#F68E48" offset="100%"/></linearGradient><linearGradient x1="10.005%" y1="23.466%" x2="74.945%" y2="147.391%" id="f"><stop stop-color="#F9A03C" offset="0%"/><stop stop-color="#F7974E" offset="100%"/></linearGradient></defs><g fill="none"><path d="M95.82 65.857c.043-.418.074-.84.098-1.264.029-.502-30.211-29.194-30.211-29.194h-.723s30.651 32.331 30.836 30.458z" fill="url(#a)"/><path d="M31.302 55.904l-.121.264-.131.275c-.964 2.01 13.495 16.145 14.658 14.428l.159-.232.175-.266c.93-1.412-14.327-15.387-14.74-14.469z" fill="url(#b)"/><path d="M51.734 75.781c-.041.09-.332.582-.598.842-.045.09 14.115 14.133 14.115 14.133h1.275c.001 0-13.292-14.381-14.792-14.975z" fill="url(#c)"/><path d="M95.938 64.338c-.662 14.68-12.807 26.418-27.645 26.418h-2.006l-14.818-14.598c1.219-1.719 2.352-3.5 3.361-5.357h13.463c4.258 0 7.723-3.463 7.723-7.723 0-4.258-3.465-7.723-7.723-7.723h-7.967c.607-3.209.939-6.518.939-9.903 0-3.437-.338-6.793-.967-10.053h4.949l30.604 30.155c.036-.404.065-.808.087-1.216zm-87.888-64.338h-8.05v19.955h8.05c14.06 0 25.5 11.437 25.5 25.497 0 3.825-.853 7.456-2.369 10.716l14.686 14.471c4.822-7.215 7.641-15.877 7.641-25.187 0-25.062-20.393-45.452-45.458-45.452z" fill="url(#d)"/><path d="M68.293 0h-32.598c7.962 4.861 14.555 11.754 19.047 19.955h13.551c4.258 0 7.723 3.463 7.723 7.723 0 4.259-3.465 7.722-7.723 7.722h-3.045l30.604 30.155c.072-.818.117-1.641.117-2.477 0-6.727-2.414-12.898-6.422-17.701 4.008-4.801 6.422-10.973 6.422-17.699 0-15.261-12.414-27.678-27.676-27.678z" fill="url(#e)"/><path d="M66.287 90.756h-30.359c6.111-3.774 11.394-8.756 15.541-14.598l14.818 14.598zm-20.42-20.117l-14.685-14.471c-4.057 8.719-12.898 14.783-23.132 14.783h-8.05v19.953h8.05c15.754 0 29.659-8.058 37.817-20.265z" fill="url(#f)"/></g></svg>