<?xml version="1.0" encoding="UTF-8" standalone="no"?><svg width="256px" height="84px" viewBox="0 0 256 84" version="1.1" xmlns="http://www.w3.org/2000/svg" xmlns:xlink="http://www.w3.org/1999/xlink" preserveAspectRatio="xMinYMin meet"><g><g fill="#161614"><path d="M42.83382,0 C19.1804552,0 0,19.1769086 0,42.83382 C0,61.7589237 12.2731932,77.8148677 29.2923804,83.4787091 C31.4330783,83.8752132 32.218994,82.5495128 32.218994,81.4181632 C32.218994,80.3967565 32.1792726,77.0225683 32.1608305,73.4433895 C20.2444204,76.0344992 17.729916,68.3895545 17.729916,68.3895545 C15.781441,63.4385701 12.9739916,62.1220903 12.9739916,62.1220903 C9.08768136,59.463596 13.2669366,59.5182129 13.2669366,59.5182129 C17.5681933,59.8203789 19.8330205,63.9322499 19.8330205,63.9322499 C23.6533649,70.4806008 29.8534447,68.5874523 32.2977274,67.4929866 C32.6821735,64.7245493 33.7922439,62.8349469 35.0172225,61.7653073 C25.5032457,60.6821906 15.5019729,57.0093828 15.5019729,40.5966559 C15.5019729,35.9201741 17.1752354,32.0991206 19.9153005,29.099448 C19.470563,28.0205873 18.004419,23.6640045 20.3302469,17.7639629 C20.3302469,17.7639629 23.9271586,16.6127525 32.1125974,22.1545925 C35.5293445,21.2055356 39.1936405,20.7295885 42.83382,20.7132744 C46.4739997,20.7295885 50.141133,21.2055356 53.5642636,22.1545925 C61.7397721,16.6127525 65.3317185,17.7639629 65.3317185,17.7639629 C67.663221,23.6640045 66.1963679,28.0205873 65.7516301,29.099448 C68.4980792,32.0991206 70.1599926,35.9201741 70.1599926,40.5966559 C70.1599926,57.0483949 60.1395684,60.670842 50.6014753,61.7312603 C52.1378411,63.0605078 53.5068095,65.6672224 53.5068095,69.6634756 C53.5068095,75.3947016 53.4571579,80.0073452 53.4571579,81.4181632 C53.4571579,82.5580246 54.2281779,83.8936554 56.3993763,83.4730346 C73.4093424,77.8028092 85.6669308,61.7525397 85.6669308,42.83382 C85.6669308,19.1769086 66.4893129,0 42.83382,0"></path><path d="M16.0426585,61.0176808 C15.9483202,61.230474 15.6135258,61.2943118 15.3085225,61.148194 C14.9978446,61.0084599 14.8233544,60.718352 14.9240764,60.5048497 C15.0162867,60.2856728 15.3517904,60.2246722 15.6617589,60.3714992 C15.9731461,60.5112333 16.1504736,60.8041784 16.0426585,61.0176808"></path><path d="M18.1496065,62.8976826 C17.9453252,63.0870684 17.5459836,62.9991139 17.2750271,62.6997852 C16.9948496,62.4011656 16.9423607,62.0018239 17.1494792,61.8096009 C17.3601443,61.6202148 17.7474277,61.7088788 18.0283145,62.0074984 C18.3084919,62.3096644 18.3631088,62.7061688 18.1496065,62.8976826"></path><path d="M19.5950526,65.3030805 C19.3326079,65.4853731 18.9034753,65.3144295 18.6381933,64.93353 C18.3757485,64.5526304 18.3757485,64.0958346 18.6438678,63.9128325 C18.909859,63.7298307 19.3326079,63.8943907 19.6014364,64.272453 C19.8631719,64.6597362 19.8631719,65.1165317 19.5950526,65.3030805"></path><path d="M22.0396113,68.0888712 C21.8048297,68.3477696 21.3047661,68.278257 20.938762,67.9250208 C20.5642463,67.5795865 20.4599777,67.0894534 20.6954687,66.8305551 C20.9330875,66.5709475 21.4359884,66.6440066 21.8048297,66.9944058 C22.1765082,67.3391306 22.2899978,67.8328104 22.0396113,68.0888712"></path><path d="M25.1989662,69.0293227 C25.095407,69.3648266 24.6137854,69.517328 24.1286172,69.3747569 C23.6441584,69.2279297 23.3270968,68.834972 23.4249816,68.4959217 C23.5257036,68.1582901 24.0094531,67.9994046 24.4981678,68.1519061 C24.9819173,68.2980242 25.2996883,68.6881447 25.1989662,69.0293227"></path><path d="M28.7944447,69.4282377 C28.8065029,69.7814739 28.395103,70.074419 27.8858184,70.080803 C27.3736965,70.092152 26.9594594,69.8063 26.9537849,69.458738 C26.9537849,69.1019551 27.3559637,68.8118473 27.8680856,68.8033355 C28.3773703,68.7934051 28.7944447,69.077129 28.7944447,69.4282377"></path><path d="M32.3265994,69.2928425 C32.3876001,69.6375673 32.0336543,69.9915129 31.5279162,70.0858511 C31.0306898,70.1766428 30.5703475,69.9638499 30.5072189,69.6219624 C30.445509,69.2687259 30.8058385,68.9147802 31.3023556,68.8232793 C31.808803,68.7353249 32.2620522,68.9424432 32.3265994,69.2928425"></path></g><g transform="translate(99.065134, 20.597701)" fill="#11110F"><path d="M30.2416756,18.4875811 L17.0473768,18.4875811 C16.7070243,18.4875811 16.4307535,18.7641788 16.4307535,19.1045313 L16.4307535,25.5555351 C16.4307535,25.8958876 16.7070243,26.1728123 17.0473768,26.1728123 L22.1945134,26.1728123 L22.1945134,34.1876066 C22.1945134,34.1876066 21.0387535,34.5815785 17.8434943,34.5815785 C14.073788,34.5815785 8.8076424,33.2041481 8.8076424,21.6243167 C8.8076424,10.0418697 14.2912082,8.51796679 19.4393257,8.51796679 C23.895622,8.51796679 25.8154585,9.30264112 27.0369349,9.68059259 C27.4207714,9.79829374 27.7758365,9.41609195 27.7758365,9.07541252 L29.2477548,2.84248276 C29.2477548,2.68325926 29.1938084,2.491341 29.0120255,2.36088889 C28.516046,2.00713155 25.4894917,0.313542784 17.8434943,0.313542784 C9.03519796,0.313542784 0,4.0610166 0,22.0758314 C0,40.0913001 10.3446232,42.7758672 19.0617011,42.7758672 C26.2793972,42.7758672 30.6578799,39.6914432 30.6578799,39.6914432 C30.838355,39.5917241 30.8579719,39.3396475 30.8579719,39.223908 L30.8579719,19.1045313 C30.8579719,18.7641788 30.5820281,18.4875811 30.2416756,18.4875811"></path><path d="M98.2036271,2.56850064 C98.2036271,2.22520562 97.9316066,1.94828097 97.5912542,1.94828097 L90.162023,1.94828097 C89.8226513,1.94828097 89.5467075,2.22520562 89.5467075,2.56850064 C89.5467075,2.57013538 89.5486692,16.9257522 89.5486692,16.9257522 L77.9685109,16.9257522 L77.9685109,2.56850064 C77.9685109,2.22520562 77.6951826,1.94828097 77.355484,1.94828097 L69.9265798,1.94828097 C69.588516,1.94828097 69.3128991,2.22520562 69.3128991,2.56850064 L69.3128991,41.4435556 C69.3128991,41.7865236 69.588516,42.0657369 69.9265798,42.0657369 L77.355484,42.0657369 C77.6951826,42.0657369 77.9685109,41.7865236 77.9685109,41.4435556 L77.9685109,24.8153257 L89.5486692,24.8153257 C89.5486692,24.8153257 89.5283985,41.4422478 89.5283985,41.4435556 C89.5283985,41.7865236 89.8040153,42.0657369 90.1437139,42.0657369 L97.5906003,42.0657369 C97.9309527,42.0657369 98.2029732,41.7865236 98.2036271,41.4435556 L98.2036271,2.56850064"></path><path d="M44.2369962,7.76598723 C44.2369962,5.09090166 42.0922197,2.92912388 39.4462324,2.92912388 C36.8028608,2.92912388 34.6564496,5.09090166 34.6564496,7.76598723 C34.6564496,10.4381303 36.8028608,12.6057931 39.4462324,12.6057931 C42.0922197,12.6057931 44.2369962,10.4381303 44.2369962,7.76598723"></path><path d="M43.6475096,33.2633257 L43.6475096,15.3184777 C43.6475096,14.9777982 43.3725466,14.6992388 43.032848,14.6992388 L35.6271571,14.6992388 C35.2874585,14.6992388 34.9833972,15.0497267 34.9833972,15.3904061 L34.9833972,41.0999336 C34.9833972,41.8555096 35.4542018,42.0801226 36.0636322,42.0801226 L42.7359796,42.0801226 C43.4680153,42.0801226 43.6475096,41.7208072 43.6475096,41.0878365 L43.6475096,33.2633257"></path><path d="M126.597722,14.6992388 L119.225379,14.6992388 C118.887315,14.6992388 118.612026,14.9777982 118.612026,15.3207663 L118.612026,34.3824674 C118.612026,34.3824674 116.739269,35.752705 114.080858,35.752705 C111.422774,35.752705 110.717221,34.5465951 110.717221,31.943765 L110.717221,15.3207663 C110.717221,14.9777982 110.442585,14.6992388 110.104194,14.6992388 L102.621997,14.6992388 C102.284261,14.6992388 102.007663,14.9777982 102.007663,15.3207663 L102.007663,33.2025134 C102.007663,40.9335172 106.316506,42.8249093 112.244066,42.8249093 C117.106759,42.8249093 121.027515,40.1383806 121.027515,40.1383806 C121.027515,40.1383806 121.214202,41.5540639 121.298554,41.7221149 C121.383234,41.8895121 121.603269,42.0585441 121.84096,42.0585441 L126.600991,42.0376194 C126.938728,42.0376194 127.215326,41.7584061 127.215326,41.4170728 L127.213037,15.3207663 C127.213037,14.9777982 126.93742,14.6992388 126.597722,14.6992388"></path><path d="M143.583632,35.7674176 C141.026575,35.6896041 139.292117,34.5292669 139.292117,34.5292669 L139.292117,22.2183806 C139.292117,22.2183806 141.003361,21.1695326 143.102692,20.9818646 C145.757507,20.7441737 148.315545,21.5461762 148.315545,27.879152 C148.315545,34.5573844 147.161093,35.8753103 143.583632,35.7674176 L143.583632,35.7674176 L143.583632,35.7674176 Z M146.491504,13.8642146 C142.304286,13.8642146 139.456245,15.7323934 139.456245,15.7323934 L139.456245,2.56850064 C139.456245,2.22520562 139.181936,1.94828097 138.843218,1.94828097 L131.393063,1.94828097 C131.054345,1.94828097 130.779055,2.22520562 130.779055,2.56850064 L130.779055,41.4435556 C130.779055,41.7865236 131.054345,42.0657369 131.394043,42.0657369 L136.563086,42.0657369 C136.795872,42.0657369 136.972097,41.9457471 137.102222,41.7355198 C137.230713,41.5266003 137.416092,39.9431928 137.416092,39.9431928 C137.416092,39.9431928 140.46259,42.8301405 146.229619,42.8301405 C153.000051,42.8301405 156.882881,39.3958825 156.882881,27.4129246 C156.882881,15.4299668 150.681665,13.8642146 146.491504,13.8642146 L146.491504,13.8642146 L146.491504,13.8642146 Z"></path><path d="M65.0295581,14.6325415 L59.4567356,14.6325415 C59.4567356,14.6325415 59.448235,7.27196935 59.448235,7.27033461 C59.448235,6.99177522 59.304705,6.85249553 58.9826616,6.85249553 L51.3883218,6.85249553 C51.0930881,6.85249553 50.9345185,6.98229374 50.9345185,7.26608429 L50.9345185,14.8741558 C50.9345185,14.8741558 47.128848,15.7928787 46.8715402,15.8670958 C46.6152133,15.9413129 46.4265645,16.177696 46.4265645,16.4595249 L46.4265645,21.2404802 C46.4265645,21.5844291 46.7012005,21.8616807 47.0408991,21.8616807 L50.9345185,21.8616807 L50.9345185,33.3630447 C50.9345185,41.9058595 56.9268148,42.7451341 60.9705032,42.7451341 C62.8180843,42.7451341 65.0282503,42.1517241 65.3931239,42.0170217 C65.6138135,41.9359387 65.741977,41.7074023 65.741977,41.459576 L65.748189,36.2002963 C65.748189,35.8573282 65.4585134,35.5797497 65.1322197,35.5797497 C64.8075607,35.5797497 63.9767867,35.7118365 63.1214917,35.7118365 C60.3842861,35.7118365 59.4567356,34.4390294 59.4567356,32.7915402 C59.4567356,31.1453589 59.4564087,21.8616807 59.4564087,21.8616807 L65.0295581,21.8616807 C65.3692567,21.8616807 65.6442197,21.5844291 65.6442197,21.2404802 L65.6442197,15.2521073 C65.6442197,14.9091392 65.3692567,14.6325415 65.0295581,14.6325415"></path></g></g></svg>