<svg width="1118" height="256" viewBox="0 0 1118 256" xmlns="http://www.w3.org/2000/svg" preserveAspectRatio="xMinYMin meet"><g fill="none"><g fill="#161614"><path d="M131.011 0c-72.346 0-131.011 58.654-131.011 131.011 0 57.884 37.539 106.993 89.593 124.316 6.548 1.213 8.951-2.842 8.951-6.302 0-3.124-.121-13.444-.178-24.392-36.447 7.925-44.138-15.458-44.138-15.458-5.96-15.143-14.546-19.17-14.546-19.17-11.887-8.131.896-7.964.896-7.964 13.156.924 20.083 13.501 20.083 13.501 11.685 20.029 30.648 14.238 38.124 10.891 1.176-8.468 4.571-14.247 8.318-17.519-29.099-3.313-59.689-14.546-59.689-64.746 0-14.303 5.118-25.991 13.499-35.165-1.36-3.3-5.845-16.625 1.269-34.671 0 0 11.001-3.521 36.037 13.429 10.45-2.903 21.658-4.359 32.792-4.408 11.134.05 22.35 1.506 32.82 4.408 25.006-16.95 35.992-13.429 35.992-13.429 7.131 18.046 2.645 31.371 1.284 34.671 8.4 9.175 13.483 20.862 13.483 35.165 0 50.319-30.648 61.399-59.822 64.642 4.699 4.066 8.886 12.039 8.886 24.261 0 17.529-.152 31.638-.152 35.953 0 3.486 2.358 7.572 8.999 6.285 52.027-17.343 89.518-66.434 89.518-124.299 0-72.357-58.657-131.011-131.009-131.011" id="Fill-4"/><path d="M49.068 186.628c-.289.651-1.313.846-2.245.399-.95-.427-1.484-1.315-1.176-1.968.282-.67 1.308-.857 2.256-.408.952.427 1.495 1.323 1.165 1.976" id="Fill-5"/><path d="M55.512 192.378c-.625.579-1.846.31-2.675-.605-.857-.913-1.017-2.135-.384-2.723.644-.579 1.829-.308 2.688.605.857.924 1.024 2.137.371 2.723" id="Fill-6"/><path d="M59.933 199.736c-.803.558-2.115.035-2.927-1.13-.803-1.165-.803-2.562.017-3.122.814-.56 2.107-.056 2.929 1.1.801 1.185.801 2.582-.02 3.152" id="Fill-7"/><path d="M67.41 208.256c-.718.792-2.248.579-3.367-.501-1.145-1.057-1.464-2.556-.744-3.348.727-.794 2.265-.571 3.393.501 1.137 1.054 1.484 2.564.718 3.348"/><path d="M77.073 211.133c-.317 1.026-1.79 1.493-3.274 1.057-1.482-.449-2.452-1.651-2.152-2.688.308-1.033 1.788-1.519 3.282-1.052 1.48.447 2.452 1.64 2.143 2.684"/><path d="M88.071 212.353c.037 1.08-1.221 1.976-2.779 1.996-1.566.035-2.833-.84-2.851-1.903 0-1.091 1.23-1.979 2.796-2.005 1.558-.03 2.833.837 2.833 1.911"/><path d="M98.874 211.939c.187 1.054-.896 2.137-2.443 2.425-1.521.278-2.929-.373-3.122-1.419-.189-1.08.913-2.163 2.432-2.443 1.549-.269 2.935.364 3.133 1.436"/></g><g fill="#11110F"><path d="M465.703 112.963h-67.933c-1.752 0-3.175 1.421-3.175 3.169v33.136c0 1.748 1.422 3.171 3.175 3.171h26.501v41.169s-5.951 2.024-22.402 2.024c-19.409 0-46.522-7.075-46.522-66.556 0-59.494 28.233-67.322 54.739-67.322 22.944 0 32.828 4.031 39.117 5.972 1.976.605 3.804-1.359 3.804-3.109l7.578-32.016c0-.818-.278-1.804-1.214-2.474-2.554-1.817-18.136-10.516-57.503-10.516-45.351 0-91.87 19.249-91.87 111.784 0 92.538 53.261 106.327 98.142 106.327 37.161 0 59.704-15.843 59.704-15.843.929-.512 1.03-1.807 1.03-2.402v-103.345c0-1.748-1.421-3.169-3.173-3.169"/><path d="M815.614 31.193c0-1.763-1.401-3.186-3.153-3.186h-38.25c-1.747 0-3.168 1.422-3.168 3.186l.01 73.747h-59.622v-73.747c0-1.763-1.407-3.186-3.156-3.186h-38.249c-1.741 0-3.16 1.422-3.16 3.186v199.684c0 1.762 1.419 3.196 3.16 3.196h38.249c1.749 0 3.156-1.434 3.156-3.196v-85.412h59.622l-.104 85.412c0 1.762 1.419 3.196 3.168 3.196h38.341c1.752 0 3.153-1.434 3.156-3.196v-199.684"/><path d="M537.76 57.891c0-13.741-11.043-24.845-24.666-24.845-13.61 0-24.661 11.104-24.661 24.845 0 13.726 11.051 24.86 24.661 24.86 13.623 0 24.666-11.134 24.666-24.86"/><path d="M534.725 188.859v-92.175c0-1.75-1.416-3.181-3.165-3.181h-38.129c-1.749 0-3.314 1.8-3.314 3.55v132.059c0 3.881 2.424 5.035 5.562 5.035h34.353c3.769 0 4.693-1.846 4.693-5.097v-40.191"/><path d="M961.805 93.504h-37.957c-1.741 0-3.158 1.431-3.158 3.193v97.912s-9.642 7.038-23.329 7.038c-13.686 0-17.318-6.195-17.318-19.565v-85.385c0-1.762-1.414-3.193-3.156-3.193h-38.523c-1.739 0-3.163 1.431-3.163 3.193v91.851c0 39.711 22.185 49.426 52.703 49.426 25.036 0 45.223-13.8 45.223-13.8s.961 7.272 1.395 8.135c.436.86 1.569 1.728 2.793 1.728l24.508-.107c1.739 0 3.163-1.434 3.163-3.187l-.012-134.045c0-1.762-1.419-3.193-3.168-3.193"/><path d="M1049.259 201.722c-13.165-.4-22.095-6.36-22.095-6.36v-63.236s8.811-5.387 19.619-6.351c13.669-1.221 26.839 2.899 26.839 35.428 0 34.303-5.944 41.073-24.363 40.519zm14.972-112.507c-21.558 0-36.222 9.596-36.222 9.596v-67.617c0-1.763-1.412-3.186-3.156-3.186h-38.358c-1.744 0-3.161 1.422-3.161 3.186v199.684c0 1.762 1.417 3.196 3.166 3.196h26.614c1.199 0 2.106-.616 2.776-1.696.662-1.073 1.616-9.206 1.616-9.206s15.685 14.829 45.378 14.829c34.858 0 54.85-17.64 54.85-79.192 0-61.551-31.928-69.594-53.501-69.594z"/><path d="M644.813 93.161h-28.692l-.044-37.816c0-1.431-.739-2.146-2.397-2.146h-39.1c-1.52 0-2.336.667-2.336 2.124v39.079s-19.594 4.719-20.919 5.1c-1.32.381-2.291 1.595-2.291 3.043v24.558c0 1.767 1.414 3.191 3.163 3.191h20.047v59.078c0 43.881 30.852 48.192 51.672 48.192 9.513 0 20.892-3.048 22.77-3.74 1.136-.416 1.796-1.59 1.796-2.863l.032-27.015c0-1.762-1.491-3.187-3.171-3.187-1.672 0-5.949.678-10.353.678-14.093 0-18.868-6.538-18.868-15 0-8.456-.002-56.142-.002-56.142h28.694c1.749 0 3.165-1.424 3.165-3.191v-30.76c0-1.762-1.416-3.182-3.165-3.182"/></g></g></svg>