<svg width="286" height="633" viewBox="0 0 286 633" xmlns="http://www.w3.org/2000/svg" preserveAspectRatio="xMinYMin meet"><title>gulp</title><desc>Created with Sketch.</desc><g fill="none"><path d="M220.399 613.524c0 10.521-34.7 19.05-77.502 19.05-42.805 0-77.504-8.529-77.504-19.05l-6.638-98.142-18.762-31.174s37.525 15.299 101.316 15.299c63.791 0 101.894-15.587 101.894-15.587l-16.741 28.577-6.063 101.028z" fill="#E34E48"/><path d="M1.853 171.298l31.134 300.072s26.828 21.196 107.641 21.196c80.814 0 108.635-20.865 108.635-20.865l33.451-300.735s-19.21 15.898-141.424 15.898c-122.215 0-139.438-15.566-139.438-15.566" fill="#E34E48"/><path d="M285.416 160c0 11.045-63.7 20-142.278 20-78.579 0-142.28-8.955-142.28-20s63.701-20 142.28-20c78.578 0 142.278 8.955 142.278 20" fill="#E34E48"/><path d="M193.871 169.911c2.396-.325 6.09-.766 6.106-3.669.002-1.706-1.433-2.694-3.078-3.204l-1.223 1.913c1.009.241 1.589.548 1.589.872-.006 1.075-7.675 1.598-14.021 1.676-6.346.08-14.643-.666-14.638-1.756.001-.232.306-.45.84-.635l-1.228-1.926c-1.299.53-2.317 1.376-2.324 2.811-.004.754.334 1.868.95 2.429 2.294 2.089 8.053 2.175 16.161 2.141 8.107-.034 10.864-.652 10.864-.652" fill="#fff"/><path d="M284.335 17.432c-1.774 2.049-7.339.131-12.428-4.277-5.091-4.408-7.781-9.643-6.009-11.689 1.775-2.048 7.339-.133 12.43 4.275 5.089 4.41 7.777 9.645 6.006 11.691" fill="#E34E48"/><path d="M265.899 1.466l-74.61 78.993-14.841 60.361 24.782 1.095 12.77-50.474 70.472-74.155-18.574-15.82z" fill="#E34E48"/><path d="M22.793 374.043c19.481 9.649 34.708-9.668 42.968-17.288.516 5.178-13.773 34.724-5 37.5 8.771 2.776 12.45-21.366 19.447-44.255 6.23-20.383 15.574-43.438 6.98-45.781-8.594-2.344-11.249 19.996-15.177 27.536-5.579 10.704-38.553 46.756-42.5 20-3.098-20.986 20.349-63.08 31.25-73.75 5.466-5.351 13.925-10.29 20-8.75 8.419 2.132 9.141 16.655 16.25 16.25 16.797-.959-2.811-29.243-17.5-30-32.495-1.675-53.038 48.561-61.568 72.914-.597 7.506 4.85 45.624 4.85 45.624" fill="#fff"/><path d="M262.084 358.75c-9.936 9.931-42.978 28.175-45.075 8.005-1.67-16.069 35.15-39.343 25.7-40.087-20.341 1.162-30.465 23.839-40.7 47.587-3.75 8.704-16.584 45.819-25 41.25-8.415-4.568 10.909-35.088 16.325-53.213-6.25 4.583-29.169 22.389-35.075 5.713-9.496 8.065-29.787 12.435-27.499-8.75-5.051 8.949-16.39 21.441-30 16.25-17.872-6.816 10.356-63.749 17.376-60.876 7.02 2.871-1.417 15.84-3.626 20.876-4.86 11.084-10.474 25.018-6.724 27.87 6.425 4.886 23.909-18.486 24.297-19 3.27-4.32 12.586-32.584 20.095-29.339 7.509 3.245-18.729 40.563-8.919 47.969 1.979 1.495 10.074-.921 14.999-6.25 3.186-3.446 2.09-11.08 12.711-36.409 10.621-25.328 20.087-56.87 27.371-54.468 7.284 2.403 1.28 18.591-1.332 24.626-12.263 28.325-33.468 75.121-23.468 71.579 10-3.543 15.208-3.75 25-15.209 9.793-11.459 9.34-30.334 15.868-29.933 6.529.401 5.432 6.454 3.85 11.063 6.424-7.351 30.45-22.834 36.25-7.5 6.871 18.153-34.375 44.375-24.091 43.038 10.284-1.337 27.137-12.129 33.749-21.667.015-.02-2.083 16.875-2.083 16.875" fill="#fff"/></g></svg>