<?xml version="1.0" encoding="UTF-8" standalone="no"?><svg width="128px" height="284px" viewBox="0 0 128 284" xmlns="http://www.w3.org/2000/svg" xmlns:xlink="http://www.w3.org/1999/xlink" preserveAspectRatio="xMinYMin meet"><g transform="translate(0.000000, -350.000000)"><g transform="translate(143.000000, 317.250000) scale(1, -1) translate(-143.000000, -317.250000) translate(0.000000, 0.750000)"><path d="M98.6401678,8.60458741 C98.6401678,3.89577622 83.1100979,0.0787132867 63.9537343,0.0787132867 C44.7962517,0.0787132867 29.2667413,3.89577622 29.2667413,8.60458741 L26.2961119,52.5285035 L17.8989091,66.4803916 C17.8989091,66.4803916 34.6933147,59.6333986 63.2432448,59.6333986 C91.7931748,59.6333986 108.846042,66.6096224 108.846042,66.6096224 L101.353455,53.8196923 L98.6401678,8.60458741 L98.6401678,8.60458741 Z" fill="#E34E48"></path><path d="M0.829314685,206.52386 L14.7633007,72.2256783 C14.7633007,72.2256783 26.770014,62.7392448 62.9384056,62.7392448 C99.1067972,62.7392448 111.558266,72.0774266 111.558266,72.0774266 L126.529455,206.672112 C126.529455,206.672112 117.931972,199.557147 63.2349091,199.557147 C8.53728671,199.557147 0.829314685,206.52386 0.829314685,206.52386" fill="#E34E48"></path><path d="M127.738741,211.58042 C127.738741,206.637203 99.2296503,202.629371 64.0620979,202.629371 C28.893986,202.629371 0.384335664,206.637203 0.384335664,211.58042 C0.384335664,216.523636 28.893986,220.531469 64.0620979,220.531469 C99.2296503,220.531469 127.738741,216.523636 127.738741,211.58042" fill="#E34E48"></path><path d="M86.7673846,207.144783 C87.8398322,207.290238 89.492979,207.48772 89.5002517,208.786741 C89.5013706,209.550378 88.8591329,209.992336 88.1229091,210.220587 L87.5757762,209.364643 C88.0272448,209.256671 88.2868252,209.119608 88.2868252,208.974154 C88.284028,208.493035 84.8518601,208.259189 82.0115804,208.223944 C79.1713007,208.18814 75.4582937,208.522126 75.4605315,209.009958 C75.4610909,209.114014 75.5975944,209.211357 75.8364755,209.294154 L75.2871049,210.156252 C74.7058462,209.919049 74.2499021,209.540308 74.2471049,208.89807 C74.2454266,208.560727 74.3964755,208.062266 74.6722797,207.811077 C75.6988531,206.876252 78.2761958,206.83765 81.9052867,206.852755 C85.5338182,206.86786 86.7673846,207.144783 86.7673846,207.144783" fill="#FFFFFF"></path><path d="M127.254713,275.387245 C126.460867,274.470322 123.970238,275.328503 121.692755,277.30165 C119.414154,279.274238 118.210238,281.617175 119.003524,282.532979 C119.79793,283.449343 122.288,282.59228 124.566601,280.619692 C126.844084,278.645986 128.047441,276.303049 127.254713,275.387245" fill="#E34E48"></path><path d="M119.003524,282.532923 L85.6116364,247.179636 L78.9693986,220.164811 L90.0608671,219.674741 L95.7761119,242.264392 L127.316252,275.452643 L119.003524,282.532923 L119.003524,282.532923 Z" fill="#E34E48"></path><path d="M10.2010629,115.784951 C18.9199441,111.466629 25.7344895,120.111664 29.4312727,123.522014 C29.6623217,121.204811 23.2673566,107.981315 27.1935105,106.738797 C31.1191049,105.49628 32.7655385,116.301315 35.8972867,126.545231 C38.6855385,135.667469 42.8673566,145.98579 39.0212028,147.034741 C35.175049,148.083692 33.9867972,138.085371 32.2284755,134.710825 C29.7316923,129.920336 14.9742098,113.784951 13.2074965,125.759776 C11.8212028,135.152224 22.3146294,153.991385 27.1935105,158.766769 C29.6399441,161.161734 33.4256783,163.372084 36.1445594,162.682853 C39.9123916,161.728448 40.2357483,155.228867 43.4172867,155.410126 C50.935049,155.839217 42.1591049,168.497678 35.5851189,168.836699 C21.0419021,169.58635 11.8480559,147.102993 8.03043357,136.203972 C7.76302098,132.844531 10.2010629,115.784951 10.2010629,115.784951" fill="#FFFFFF"></path><path d="M117.296224,122.629371 C112.849231,118.184615 98.0615385,110.01958 97.1227972,119.046713 C96.3753846,126.238322 112.854266,136.654545 108.624895,136.987972 C99.5211189,136.467692 94.9902098,126.318881 90.4095105,115.69007 C88.7311888,111.794685 82.9874126,95.1837762 79.2206993,97.2285315 C75.4545455,99.2727273 84.1029371,112.932028 86.526993,121.043916 C83.7297902,118.993007 73.4724476,111.023776 70.8290909,118.487273 C66.579021,114.877762 57.4976224,112.921958 58.521958,122.403357 C56.2612587,118.398322 51.1865734,112.807273 45.0953846,115.130629 C37.0965035,118.181259 49.7303497,143.661538 52.8721678,142.375944 C56.013986,141.090909 52.2377622,135.286713 51.2492308,133.032727 C49.0741259,128.072168 46.5616783,121.836084 48.24,120.559441 C51.1155245,118.372587 58.9404196,128.833007 59.1144056,129.062937 C60.5779021,130.996364 64.7474126,143.645874 68.107972,142.193566 C71.4685315,140.741259 59.7258741,124.03972 64.1163636,120.725035 C65.001958,120.055944 68.6248951,121.137343 70.8290909,123.522238 C72.2551049,125.064615 71.7644755,128.481119 76.518042,139.817063 C81.2716084,151.152448 85.5082517,165.269371 88.7681119,164.194126 C92.027972,163.118881 89.340979,155.873566 88.1717483,153.172587 C82.6836364,140.495664 73.1932867,119.551888 77.6688112,121.137343 C82.1443357,122.722797 84.474965,122.815664 88.8576224,127.944056 C93.2402797,133.072448 93.0377622,141.52 95.9591608,141.34042 C98.8811189,141.160839 98.3904895,138.452028 97.6822378,136.389371 C100.557203,139.679441 111.31021,146.608671 113.906014,139.746014 C116.981259,131.621818 98.5213986,119.885874 103.123916,120.484476 C107.726434,121.083077 115.269371,125.912727 118.228252,130.181818 C118.234965,130.190769 117.296224,122.629371 117.296224,122.629371" fill="#FFFFFF"></path></g></g></svg>