<svg width="464" height="112" viewBox="0 0 464 112" xmlns="http://www.w3.org/2000/svg" preserveAspectRatio="xMinYMin meet"><path d="M171.01.01c16.07-.07 32.55 4.54 45.04 14.93 6.4 5.18 11.57 11.68 15.96 18.6 7.9-12.77 19.44-23.62 33.67-28.85 17.34-6.51 36.94-6.06 54.25.32 15.12 5.52 28.34 15.14 40.33 25.72 9.38 8.28 18.06 17.34 27.72 25.31 5.09 4.13 10.56 8 16.82 10.14 8.32 2.84 18.16.16 24.11-6.25 5.51-6 5.17-16.37-.9-21.85-3.86-3.33-10.46-2.66-13.19 1.78-2.39 3.52-1.05 7.91.82 11.32-4.97-3.63-9.95-8.69-9.93-15.29-1.03-7.63 4.63-14.36 11.41-17.03 13.23-5.29 29.82-.73 38.17 10.92 8.03 10.87 8.67 25.16 7.27 38.11-1.69 12.3-8.57 23.78-18.77 30.9-14.32 10.22-32.47 13.39-49.74 13.17-16.6-.45-33.03-4.2-48.41-10.4-25.72-10.34-49.79-24.63-76.35-32.89-8.81-3.42-18.18-5.27-27.6-5.84-7.5-.05-14.61-.4-21.69.08-8.64.83-17.23 2.6-25.32 5.77-27.01 8.4-51.44 23.05-77.65 33.41-22.13 8.61-46.65 12.61-70.14 7.83-13.14-2.66-26.22-8.47-35.09-18.82-7.59-8.8-11.23-20.58-10.87-32.12-.42-10.89 1.97-22.46 9.17-30.94 6.7-8.04 17.49-12.12 27.85-11.22 6.67.31 13.43 3.22 17.55 8.59 3.24 4.25 3.44 10.07 2.02 15.04-1.73 4.47-5.3 7.96-9.18 10.64 1.98-3.34 3.18-7.75.84-11.24-2.88-4.65-9.97-5.12-13.72-1.3-4.62 4.75-5.59 12.51-2.49 18.33 3.36 6.1 10.31 9.58 17.04 10.29 10.18.88 19.01-5.43 26.48-11.55 15.46-13.31 29.38-28.54 46.53-39.8 14.14-9.48 30.8-15.89 47.99-15.81z" fill="#423426"/></svg>