<svg width="510" height="178" viewBox="0 0 510 178" xmlns="http://www.w3.org/2000/svg" preserveAspectRatio="xMinYMin meet"><g fill="#4E8EF7"><path id="Rectangle-path" d="M226.792 66.041h3.678v69.596h-3.678z"/><path d="M282.729 64.333c-20.879 0-36.632 15.759-36.632 36.506 0 20.879 15.753 36.505 36.632 36.505 20.881 0 36.639-15.626 36.639-36.505-.002-20.747-15.759-36.506-36.639-36.506zm0 69.597c-18.776 0-32.957-14.182-32.957-33.091 0-18.91 14.18-33.09 32.957-33.09 18.778 0 32.964 14.18 32.964 33.09-.002 18.909-14.185 33.091-32.964 33.091zM388.83 71.293c-7.879-6.435-17.332-6.96-22.191-6.96-11.029 0-23.244 5.123-27.573 15.102h-.267v-13.394h-3.677v69.596h3.677v-40.051c0-17.464 10.771-27.837 28.234-27.837 10.505 0 16.147 3.414 19.694 6.564 5.253 4.728 8.536 12.475 8.536 24.553v36.771h3.679v-36.771c0-12.472-3.283-21.796-10.112-27.573z"/><path d="M419.295 66.041h3.677v69.596h-3.677z"/><path d="M475.233 133.93c-17.729 0-32.961-13.396-32.961-33.091 0-9.454 3.938-18.646 9.587-23.77 7.221-6.433 13.654-9.32 23.505-9.32 13.654 0 25.736 7.614 30.463 20.876h4.072c-5.516-16.413-20.485-24.292-34.666-24.292-21.144 0-36.64 16.02-36.64 36.638 0 21.667 16.414 36.373 36.64 36.373 16.546 0 29.676-9.454 34.533-23.636h-4.068c-3.414 10.374-14.708 20.222-30.465 20.222z"/><circle id="Oval" cx="228.632" cy="44.468" r="3.969"/><circle id="Oval" cx="421.132" cy="44.468" r="3.969"/><circle cx="89.024" cy="88.922" r="36.306"/><path d="M163.115 27.317c0-6.896-5.592-12.484-12.486-12.484-3.129 0-5.979 1.158-8.171 3.06-14.887-11.228-33.396-17.893-53.435-17.893-49.032 0-88.922 39.891-88.922 88.923 0 49.031 39.891 88.923 88.923 88.923 49.032 0 88.922-39.892 88.922-88.923 0-20.039-6.665-38.548-17.892-53.436 1.902-2.19 3.061-5.042 3.061-8.17zm-74.092 147.537c-47.382 0-85.932-38.55-85.932-85.932 0-47.382 38.55-85.932 85.932-85.932 19.266 0 37.069 6.374 51.417 17.123-1.442 2.036-2.297 4.518-2.297 7.203 0 6.895 5.59 12.483 12.484 12.483 2.686 0 5.165-.855 7.202-2.297 10.749 14.348 17.123 32.151 17.123 51.419.002 47.383-38.546 85.933-85.929 85.933z"/></g></svg>