<svg width="521" height="119" viewBox="0 0 521 119" xmlns="http://www.w3.org/2000/svg" preserveAspectRatio="xMinYMin meet"><g fill="none"><path d="M498.283 8.815l21.839.12s-40.603 55.018-43.918 59.502c-1.077 1.452-2.713 3.018-3.542 4.959-2.097 4.88-4.25 15.584-4.25 15.584l-19.982.099s3.109-11.157 2.981-17.1c-.113-5.192-2.763-10.377-4.25-15.584-1.502-5.27-3.542-15.584-3.542-15.584h20.543l2.833 11.334 31.288-43.33" fill="#1A1918"/><path d="M456.93 20.418c4.03 2.43 6.503 15.832 6.503 15.832s-21.088.311-32.564.311h-9.917l-12.042 52.419h-18.417s11.461-56.966 14.167-67.294c.878-3.343 6.007-2.77 14.67-2.77h13.834c8.933 0 19.374-1.14 23.766 1.502" fill="#1A1918"/><path d="M371.19 45.947s.574-3.365-1.948-7.261c-2.153-3.322-4.143-4.094-9.81-4.271-16.002-.503-15.691 11.355-15.691 11.355l27.449.177zm17.355-13.579c2.345 8.458-2.125 28.334-2.125 28.334s-23.341-.39-36.126 0c-3.975.121-8.734-.432-9.917 1.417-1.665 2.592.608 6.581 2.535 8.266 2.218 1.941 6.538 2.161 8.09 2.359 10.377 1.318 32.096.34 32.096.34l-3.762 16.66s-30.692 1.538-46.043-2.125c-3.031-.722-5.872-2.181-7.792-4.25-.524-.566-.978-1.338-1.474-2.004-.396-.532-1.55-2.281-2.068-3.663-3.506-9.343.411-27.243 4.25-36.834.446-1.112 1.006-2.521 1.595-3.719.736-1.494 1.359-3.18 1.947-4.073.396-.616.886-1.013 1.297-1.594.474-.687 1.026-1.353 1.537-1.947 1.416-1.644 3.024-2.806 4.958-4.25 6.396-4.789 17.971-8.508 31.876-7.084 5.235.538 13.141 2.408 17.001 7.792 1.034 1.438 1.544 4.292 2.125 6.375z" fill="#1A1918"/><path d="M304.073 18.852l17.858-.106s-9.952 47.212-15.024 70.234h-20.543c-14.358 0-27.144 1.778-32.584-8.501-5.277-9.98-.241-26.393 2.125-37.543 1.672-7.891 5.193-24.02 5.193-24.02l18.502-.17s-5.228 25.111-7.403 37.649c-.779 4.491-2.386 8.72-.708 12.042 1.594 3.16 3.825 3.386 10.625 3.542 2.154.05 9.209 0 9.209 0l12.75-53.127" fill="#1A1918"/><path d="M220.487 52.853c1.87-6.644 4.597-13.848 4.25-19.834-.375-6.403-5.744-12.233-9.208-13.458-10.434-3.684-20.202 1.466-24.084 5.666-5.023 5.441-6.723 11.795-8.501 20.543-1.324 6.495-2.408 13.352 0 18.417 4.264 8.954 17.56 6.999 31.876 7.084 2.125-5.695 3.882-12.092 5.667-18.418zm24.793-26.209c2.04 14.833-5.787 31.204-11.178 45.441 5.497.496 10.314-.077 10.661.333.361.532-3.684 16.994-5.094 17.036-4.363.114-18.82.234-24.849.234-19.671 0-38.074 1.282-47.459-8.5-3.811-3.974-6.446-10.789-7.084-15.584-1.063-8.005.269-16.817 2.125-24.084 1.679-6.56 3.832-12.751 7.084-18.418 8.266-14.429 22.646-25.139 46.751-22.667 4.675.482 11.39 2.529 15.584 4.958.29.171 1.304.978 1.537 1.12 5.667 3.606 10.831 12.212 11.922 20.131z" fill="#1A1918"/><path d="M158.244 18.937c-1.19 5.419-2.38 11.561-3.634 16.916h-19.834c1.537-5.936 2.713-11.837 4.25-17.001 6.347 0 12.248.085 19.218.085" fill="#1A1918"/><path d="M134.068 40.811h19.125c-2.5 13.842-7.451 36.169-11.333 51.71-2.43 9.726-4.052 16.824-10.626 21.959-.588.461-.927.242-1.416.709-1.212 1.155-6.815 2.494-9.917 2.833-5.044.546-10.746.071-16.944-.056 1.622-5.929 3.457-13.048 4.902-18.361 15.109 1.828 15.492-12.453 18.417-26.209 1.693-7.948 6.822-29.397 7.792-32.585" fill="#1A1918"/><path d="M89.441 76.938l-.41 1.062c-6.985 13.6-19.36 21.945-37.012 22.313-8.252.17-16.115-1.947-21.251-4.25-11.085-4.98-20.408-14.216-25.5-24.084-7.304-14.146-8.621-33.824 6.566-48.522l-1.608 3.187-.418 1.36c-10.944 34.263 22.773 63.625 55.549 60.267 7.877-.807 17.922-5.121 24.084-11.333" fill="#21609B"/><path d="M90.738 34.167c-1.282 2.94-8.663 8.493-11.922 9.187-12.906 2.749-21.172-3.371-25.501-10.335-.644-1.041-1.834-3.881-2.047-4.604-1.679-5.709-.907-14.344 4.102-18.814-1.509 4.25-1.729 9.187-.935 12.396.481 1.941 1.947 5.328 3.414 7.459 2.67 3.882 4.363 4.825 7.792 6.886 1.544.928 3.201 1.672 3.917 1.877 3.251.956 10.115 3.478 21.18-4.052" fill="#21609B"/><path d="M69.607 62.77c8.246.057 16.859-3.797 21.959-9.208-4.462 11.327-17.382 18.608-34.709 16.292-14.507-1.941-28.327-16.54-29.751-31.168-1.041-10.646 2.67-17 8.784-24.707-2.125 4.031-2.919 7.14-3.117 9.123-2.323 23.029 18.396 39.548 36.834 39.668" fill="#21609B"/></g></svg>