<svg width="148" height="181" viewBox="0 0 148 181" xmlns="http://www.w3.org/2000/svg" preserveAspectRatio="xMinYMin meet"><g transform="translate(.344 -1)" fill="none"><path d="M86.743 82.508l16.89-39.95c.2-.48.76-.707 1.244-.506.482.2.713.752.51 1.233l-14.885 35.202-3.759 4.021z" fill="#939598"/><path d="M101.313 62.177s-8.083 10.593-13.788 16.713c-5.71 6.122-14.03 15.774-14.03 15.774v21.58l.175-.016c1.38 0 2.498 1.105 2.498 2.47 0 1.366-1.119 2.473-2.498 2.473l-.175-.019v21.772s10.478-7.12 18.068-14.008c8.558-7.767 18.069-19.895 18.069-19.895l-8.319-46.843v-.001z" fill="#931A2B"/><path d="M67.562 22.69l-.078 8.413-30.533 12.23.537-7.475 30.075-13.17-.001.002z" fill="#A7A9AC"/><path d="M109.98 35.564l.595 7.472-30.687-11.984-.145-8.41 30.237 12.922zm-36.34-15.534l.032 8.593-44.665-17.445.927-9.832 43.706 18.684zm-43.706-18.684l-.927 9.832-5.923 3.495 1.024-9.6 5.826-3.727z" fill="#BCBEC0"/><path d="M117.147.98l1 9.826-44.475 17.817-.033-8.594 43.508-19.049z" fill="#A7A9AC"/><path d="M123.017 4.66l1.099 9.593-5.968-3.447-1-9.825 5.869 3.679z" fill="#BCBEC0"/><path d="M43.03 45.052l-6.08-1.718 30.534-12.23-44.4-16.43 5.923-3.496 44.665 17.445 44.476-17.817 5.968 3.447-44.228 16.8 30.687 11.983-6.065 1.768-30.81-11.4-30.67 11.646v.002z" fill="#808285"/><path d="M23.566 69.727l-.095-.005c-.522-.052-.904-.51-.852-1.03l5.443-54.31c.052-.515.506-.895 1.04-.843.522.05.904.512.852 1.028l-5.442 54.31c-.05.486-.46.85-.944.85h-.002zm97.869 0c-.497 0-.918-.386-.947-.885l-3.29-54.683c-.032-.52.367-.967.892-.998.537-.035.976.364 1.008.884l3.287 54.68c.033.52-.365.966-.89.998l-.06.004zm-63.535 10.929l-15.745-37.12c-.203-.48.025-1.034.507-1.235.486-.2 1.043.026 1.246.505l17.476 41.2-3.484-3.35z" fill="#939598"/><path d="M71.176 118.7c0-1.306 1.024-2.364 2.32-2.455v-21.58s-8.323-9.653-14.03-15.775c-5.706-6.12-13.79-16.713-13.79-16.713l-8.32 46.848s9.51 12.127 18.068 19.894c7.59 6.888 18.07 14.007 18.07 14.007v-21.773c-1.293-.091-2.318-1.15-2.318-2.453z" fill="#A81E2C"/><path d="M73.67 120.111c-.23 0-.464-.082-.646-.25l-32.77-30.127-.01-2.578 33.42 30.72 32.996-31.086.133 2.472-32.468 30.588c-.184.176-.42.262-.657.262h.002v-.001z" fill="#939598"/><path d="M142.211 68.768l-40.897-6.59s3.804 21.657 3.804 57.91c0 36.257-4.993 60.975-4.993 60.975l41.373-4.474s5.229-19.78 5.229-53.914c-.002-34.133-4.518-53.908-4.518-53.908l.002.001zm-18.905 95.58c-1.116 0-2.021-.894-2.021-2 0-1.102.904-2 2.021-2s2.02.898 2.02 2c0 1.104-.902 2-2.02 2zm-81.434-44.261c0-36.253 3.804-57.91 3.804-57.91l-40.896 6.59s-4.517 19.776-4.517 53.91c0 34.138 5.23 53.914 5.23 53.914l41.372 4.476c0-.005-4.993-24.721-4.993-60.98zm-18.948 44.13c-1.04 0-1.885-.837-1.885-1.867 0-1.031.843-1.867 1.884-1.867 1.04 0 1.884.836 1.884 1.865 0 1.028-.843 1.866-1.884 1.866l.001.003z" fill="#CE2227"/><ellipse id="Oval" fill="#A51724" cx="123.306" cy="80.657" rx="1.869" ry="1.85"/><path d="M123.308 163.29l-.223-.028c-.51-.119-.826-.623-.705-1.134.029-.116 2.827-12.149 2.827-40.017 0-27.922-2.804-41.128-2.831-41.256-.109-.51.217-1.01.729-1.12.51-.11 1.021.214 1.13.723.029.13 2.874 13.535 2.874 41.653 0 28.134-2.761 39.961-2.878 40.451-.105.439-.495.729-.924.729v-.001h.001z" fill="#939598"/><ellipse fill="#A51724" cx="22.924" cy="80.657" rx="2.192" ry="2.17"/><path d="M22.922 163.29c-.463 0-.868-.337-.94-.804-.023-.156-2.388-16.012-2.388-40.866 0-24.855 2.365-40.94 2.388-41.1.078-.515.56-.87 1.08-.793.52.075.88.555.803 1.068-.025.16-2.368 16.12-2.368 40.827 0 24.717 2.345 40.435 2.367 40.586.08.51-.28.995-.8 1.072l-.142.01z" fill="#939598"/></g></svg>