<svg xmlns="http://www.w3.org/2000/svg" viewBox="0 0 572.6 177.4" enable-background="new 0 0 572.6 177.4" preserveAspectRatio="xMinYMin meet"><linearGradient id="a" gradientUnits="userSpaceOnUse" x1="-154.624" y1="-938.303" x2="-203.297" y2="-938.635" gradientTransform="matrix(-.977 -.323 .29 -.877 142.414 -783.49)"><stop offset=".231" stop-color="#999875"/><stop offset=".555" stop-color="#9A9976"/><stop offset=".672" stop-color="#9E9C7B"/><stop offset=".756" stop-color="#A5A383"/><stop offset=".823" stop-color="#B0AD90"/><stop offset=".881" stop-color="#BFBBA2"/><stop offset=".932" stop-color="#D2CEBA"/><stop offset=".977" stop-color="#EAE7D9"/><stop offset="1" stop-color="#FCFAF0"/></linearGradient><path fill="url(#a)" d="M48.6 165.1l-4.1-1.4s.5-20.9-7-22.4c-5-5.8.8-246 18.8-.8 0 0-6.2 3.1-7.3 8.4-1.2 5.2-.4 16.2-.4 16.2z"/><linearGradient id="b" gradientUnits="userSpaceOnUse" x1="-147.127" y1="-853.116" x2="-217.153" y2="-974.403" gradientTransform="matrix(-.977 -.323 .29 -.877 142.414 -783.49)"><stop offset="0" stop-color="#49A547"/><stop offset="1" stop-color="#409143"/></linearGradient><path fill="url(#b)" d="M50.8 144.9s35.9-23.6 27.5-72.7c-8.1-35.7-27.2-47.4-29.3-51.9-2.3-3.2-4.5-8.8-4.5-8.8l1.5 99.3c0 .1-3.1 30.4 4.8 34.1z"/><linearGradient id="c" gradientUnits="userSpaceOnUse" x1="-140.712" y1="-940.305" x2="-190.348" y2="-906.965" gradientTransform="matrix(-.977 -.323 .29 -.877 142.414 -783.49)"><stop offset="0" stop-color="#42A347"/><stop offset=".409" stop-color="#50A84A"/><stop offset="1" stop-color="#69B654"/></linearGradient><path fill="url(#c)" d="M42.4 146.2s-33.7-23-31.7-63.5c1.9-40.5 25.7-60.4 30.3-64 3-3.2 3.1-4.4 3.3-7.6 2.1 4.5 1.7 67.3 2 74.7.9 28.5-1.6 55-3.9 60.4z"/><path fill="#C1BFBE" d="M426.4 70.9c1.9 0 9.2.3 12.7.3 6.3 0 10.8-.3 22.7-.3 10 0 18.4 2.7 24.4 7.8 7.3 6.3 11.1 15 11.1 25.6 0 15.1-6.9 23.8-13.8 28.8-6.9 5.1-15.9 8.1-28.7 8.1-6.8 0-18.5-.2-28.2-.3h-.1c-.5-.9.8-4.4 1.6-4.5 2.6-.3 3.3-.4 4.6-.9 2.1-.8 2.5-1.9 2.8-5.6.3-6.9.2-15.2.2-24.6 0-6.7.1-19.8-.1-24-.3-3.5-1.8-4.4-4.8-5-1.5-.3-3.5-.7-6.3-1-.4-.7 1.4-3.8 1.9-4.4zm22.7 62.2c2.4 1.9 7.1 2.7 11.3 2.7 5.4 0 10.8-1 16-5.7 5.3-4.8 9-12.2 9-24 0-11.3-4.3-20.5-13.1-25.9-5-3.1-11.4-4.4-18.8-4.4-2.2 0-4.3.1-5.6.7-.3.2-1 1.1-1 1.6-.2 2-.2 17.4-.2 26.4 0 9.3 0 22.3.2 23.8 0 1.5.7 3.8 2.2 4.8zM506.8 70.9c1 0 4 .3 11.7.3 7.3 0 13.1-.2 20.2-.2 8.7 0 20.7 3.1 20.7 16.1 0 6.4-4.5 11.5-10.4 14-.3.1-.3.3 0 .4 8.4 2.1 15.8 7.3 15.8 17.1 0 9.6-6 15.7-14.7 19.5-5.3 2.3-11.9 3.1-18.6 3.1-5.1 0-18.8-.6-26.4-.4-.8-.3.7-3.9 1.4-4.5 1.8-.1 3.2-.2 5.1-.8 2.7-.7 3-1.5 3.4-5.6.2-3.5.2-15.9.2-24.7 0-12.1.1-20.3 0-24.3-.1-3.1-1.2-4.1-3.4-4.7-1.7-.3-4.5-.7-6.8-1-.5-.5 1.2-3.9 1.8-4.3zm46.2 50.2c0-9.9-7.3-15.4-20.5-15.4-.6 0-4.8-.1-5.8.1-.3.1-.7.3-.7.6 0 7.1-.1 18.4.2 22.8.2 1.9 1.6 4.6 3.3 5.4 1.8 1 5.9 1.2 8.7 1.2 7.9 0 14.8-4.4 14.8-14.7zm-25.8-44.7c-.5.1-1 1.2-1 1.8-.1 4-.2 14.6-.2 21.8 0 .2.3.6.6.6 1.5.1 5.1.2 8.2.2 4.3 0 6.8-.6 8.2-1.2 3.6-1.8 5.3-5.7 5.3-10 0-9.7-6.8-13.4-16.9-13.4-.7-.1-2.7-.1-4.2.2z"/><path fill="#494849" d="M101.2 141.1c-.2-.3-.4-1.2-.3-2.3 0-.8.2-1.3.3-1.5 2.1-.3 3.2-.6 4.4-.9 2-.5 2.8-1.6 2.9-4.1.3-6 .3-17.4.2-25.3v-.2c0-.9 0-2-1.1-2.8-1.6-1-3.5-1.9-6-2.6-.9-.3-1.5-.8-1.4-1.4 0-.6.6-1.3 1.9-1.5 3.3-.3 11.9-2.4 15.3-3.9.2.2.5.8.5 1.6l-.1 1.1c-.1 1.1-.2 2.4-.2 3.7 0 .4.4.7.8.7.2 0 .4-.1.6-.2 6.4-5 12.2-6.8 15.2-6.8 4.9 0 8.7 2.3 11.6 7.1.2.3.4.4.7.4.2 0 .5-.1.6-.3 5.9-4.5 11.8-7.2 15.7-7.2 9.3 0 14.8 6.9 14.8 18.6 0 3.3 0 7.6-.1 11.5 0 3.5-.1 6.7-.1 9 0 .5.7 2.1 1.8 2.4 1.4.7 3.3 1 5.8 1.4h.1c.2.7-.2 3.3-.6 3.8-.6 0-1.5 0-2.5-.1-1.9-.1-4.6-.2-7.6-.2-6.2 0-9.4.1-12.5.3-.2-.8-.3-3.2 0-3.8 1.8-.3 2.7-.6 3.8-.9 2-.6 2.5-1.5 2.6-4.1 0-1.9.4-18.1-.2-22-.6-4-3.6-8.7-10.2-8.7-2.5 0-6.4 1-10.2 3.9-.2.2-.4.7-.4 1v.1c.4 2.1.4 4.5.4 8.2v6.5c0 4.5-.1 8.7 0 11.9 0 2.2 1.3 2.7 2.4 3.1.6.1 1 .2 1.5.3.9.2 1.8.4 3.2.7.2.4.2 1.7-.1 2.8-.1.6-.3.9-.4 1-3.4-.1-6.9-.2-12-.2-1.5 0-4.1.1-6.3.1-1.8 0-3.5.1-4.5.1-.1-.2-.3-.9-.3-2 0-.9.2-1.6.4-1.8.5-.1.9-.2 1.4-.2 1.2-.2 2.2-.4 3.2-.6 1.7-.5 2.3-1.4 2.4-3.6.3-5 .6-19.3-.1-22.9-1.2-5.8-4.5-8.7-9.8-8.7-3.1 0-7 1.5-10.2 3.9-.5.4-.9 1.4-.9 2.3v5.9c0 7.2 0 16.2.1 20.1.1 1.2.5 2.6 2.8 3.1.5.1 1.3.3 2.3.4l1.8.3c.2.6.1 3-.3 3.8-1 0-2.2-.1-3.6-.1-2.1-.1-4.8-.2-7.8-.2-3.5 0-6 .1-8 .2-1.4-.2-2.5-.2-3.7-.2zM215.5 142.1c-17 0-23.1-12.5-23.1-24.2 0-8.2 3.3-14.5 9.9-19 4.7-2.9 10.3-4.5 15.3-4.5 13 0 22.1 9.3 22.1 22.7 0 9.1-3.6 16.3-10.5 20.7-3.2 2.2-8.9 4.3-13.7 4.3zm-1.8-42.8c-2.1 0-4 .5-5.4 1.5-3.9 2.4-5.9 7.2-5.9 14.2 0 13.1 6.6 22.3 16 22.3 2.8 0 5-.8 6.9-2.4 2.9-2.4 4.4-7.2 4.4-13.9 0-13-6.4-21.7-16-21.7zM391.9 142.1c-17 0-23.1-12.5-23.1-24.2 0-8.2 3.3-14.5 9.9-19 4.7-2.9 10.3-4.5 15.3-4.5 13 0 22.1 9.3 22.1 22.7 0 9.1-3.6 16.3-10.5 20.7-3.3 2.2-9 4.3-13.7 4.3zm-1.8-42.8c-2.1 0-4 .5-5.4 1.5-3.9 2.4-5.9 7.2-5.9 14.2 0 13.1 6.6 22.3 16 22.3 2.8 0 5-.8 6.9-2.4 2.9-2.4 4.4-7.2 4.4-13.9 0-13-6.5-21.7-16-21.7zM333.1 169c-6.1 0-10.5-1.3-14.3-4.2-3.7-2.8-5.3-7-5.3-9.9 0-.8.2-3 2-5 1.1-1.2 3.5-3.5 9.2-7.4.2-.1.3-.2.3-.4s-.2-.4-.4-.5c-4.7-1.8-6.1-4.7-6.5-6.3v-.2c-.1-.6-.3-1.2.6-1.8.7-.5 1.7-1.1 2.8-1.8 1.7-1 3.5-2.1 4.6-3 .2-.2.2-.4.2-.6 0-.2-.2-.4-.4-.5-7-2.3-10.5-7.5-10.5-15.3 0-5.1 2.3-9.7 6.4-12.6 2.8-2.2 9.8-4.9 14.4-4.9h.3c4.7.1 7.3 1.1 11 2.4 2 .7 3.9 1 6.5 1 3.9 0 5.6-1.2 7-2.6.1.2.3.7.4 2 .1 1.3-.3 3.2-1.3 4.6-.8 1.1-2.6 1.9-4.4 1.9h-.5c-1.8-.2-2.6-.4-2.6-.4l-.4.2c-.1.2 0 .4.1.7l.1.2c.2.9.6 3.6.6 4.3 0 8.2-3.3 11.8-6.8 14.5-3.4 2.5-7.3 4.1-11.7 4.5-.1 0-.5 0-1.4.1-.5 0-1.2.1-1.3.1h-.1c-.8.2-2.8 1.2-2.8 2.9 0 1.5.9 3.3 5.2 3.6.9.1 1.8.1 2.8.2 5.7.4 12.8.9 16.1 2 4.6 1.7 7.5 5.8 7.5 10.7 0 7.4-5.3 14.3-14.1 18.6-4.3 1.9-8.6 2.9-13.3 2.9zm-.7-26c-2 0-3.4.6-4.3 1.1-4.2 2.7-6.1 5.3-6.1 8.4 0 2.9 1.1 5.2 3.5 7.2 2.9 2.5 6.9 3.7 12 3.7 10.2 0 14.7-5.5 14.7-10.9 0-3.8-1.9-6.3-5.8-7.7-2.8-1.2-7.9-1.8-14-1.8zm.7-44.2c-5.3 0-8.6 4.1-8.6 10.5 0 6.5 2.9 14 11.1 14 1.4 0 4-.6 5.2-2 1.9-1.8 3.2-5.4 3.2-9.2 0-8.3-4.1-13.3-10.9-13.3zM305.4 137c-2.5-.3-4.3-.7-6.5-1.7-.3-.2-.8-1.2-.8-1.6-.2-3.5-.2-13.5-.2-20.2 0-5.4-.9-10.1-3.2-13.4-2.7-3.8-6.6-6-11.6-6-4.4 0-10.3 3-15.2 7.2-.1.1-.9.8-.8-.3 0-1.1.2-3.3.3-4.8.1-1.4-.7-2.1-.7-2.1-3.2 1.6-12.2 3.7-15.5 4-2.4.5-3 2.8-.5 3.6h.1c2.7.8 4.5 1.7 5.9 2.6 1 .8.9 1.9.9 2.8.1 7.5.1 19-.2 25.3-.1 2.5-.8 3.4-2.6 3.8l.2-.1c-1.4.3-2.5.6-4.2.8-.6.6-.6 3.8 0 4.5 1.1 0 6.9-.3 11.7-.3 6.6 0 10 .3 11.7.3.7-.8.9-3.8.5-4.5-1.9-.1-3.3-.3-4.6-.7-1.8-.4-2.3-1.3-2.4-3.4-.2-5.3-.2-16.5-.2-24.1 0-2.1.6-3.1 1.2-3.7 2.3-2 6-3.4 9.3-3.4 3.2 0 5.3 1 6.9 2.3 2.2 1.8 2.9 4.4 3.2 6.3.5 4.3.3 12.8.3 20.2 0 4-.3 5-1.8 5.5-.7.3-2.5.7-4.6.9-.7.7-.5 3.8 0 4.5 2.9 0 6.3-.3 11.3-.3 6.2 0 10.2.3 11.8.3.5-.6.7-3.5.3-4.3z"/></svg>