<svg width="591" height="160" viewBox="0 0 591 160" xmlns="http://www.w3.org/2000/svg" preserveAspectRatio="xMinYMin meet"><g fill="none"><path d="M298.536 0c-.409.005-.824.103-1.189.317-.73.428-1.189 1.215-1.189 2.061v60.643c0 .596-.277 1.128-.793 1.427-.517.3-1.147.3-1.665 0l-9.909-5.708c-1.476-.851-3.28-.851-4.756 0l-39.556 22.83c-1.479.853-2.378 2.494-2.378 4.201v45.66c0 1.706.901 3.267 2.378 4.122l39.556 22.83c1.479.853 3.277.853 4.756 0l39.556-22.83c1.478-.855 2.378-2.416 2.378-4.122v-113.834c0-1.732-.945-3.357-2.457-4.201l-23.544-13.159c-.37-.206-.78-.242-1.189-.238zm-254.461 56.996c-.754.03-1.463.162-2.14.555l-39.556 22.83c-1.474.852-2.378 2.404-2.378 4.122l.079 61.277c0 .852.44 1.644 1.189 2.061.734.44 1.646.44 2.378 0l23.464-13.476c1.486-.883 2.457-2.419 2.457-4.122v-28.617c0-1.707.898-3.274 2.378-4.122l9.988-5.787c.745-.431 1.546-.634 2.378-.634.815 0 1.653.203 2.378.634l9.988 5.787c1.48.849 2.378 2.415 2.378 4.122v28.617c0 1.703.981 3.249 2.457 4.122l23.464 13.476c.737.44 1.647.44 2.378 0 .728-.418 1.189-1.209 1.189-2.061l.079-61.277c0-1.718-.894-3.27-2.378-4.122l-39.556-22.83c-.669-.393-1.381-.524-2.14-.555h-.476zm355.453.555c-.826-.001-1.636.208-2.378.634l-39.556 22.83c-1.478.853-2.378 2.415-2.378 4.122v45.66c0 1.717.967 3.274 2.457 4.122l39.239 22.355c1.449.827 3.218.889 4.677.079l23.781-13.238c.755-.419 1.265-1.2 1.268-2.061.005-.861-.444-1.633-1.189-2.061l-39.794-22.83c-.745-.425-1.268-1.286-1.268-2.14v-14.269c0-.853.53-1.635 1.268-2.061l12.366-7.135c.736-.426 1.639-.426 2.378 0l12.366 7.135c.739.426 1.189 1.208 1.189 2.061v11.257c0 .854.45 1.635 1.189 2.061.742.427 1.639.429 2.378 0l23.702-13.793c1.471-.855 2.378-2.421 2.378-4.122v-11.019c0-1.702-.904-3.268-2.378-4.122l-39.319-22.83c-.74-.429-1.552-.633-2.378-.634v.001zm-118.273 34.087c.206 0 .449.051.634.157l13.555 7.848c.368.213.634.606.634 1.03v15.696c0 .426-.264.819-.634 1.031l-13.555 7.848c-.369.211-.82.211-1.189 0l-13.555-7.848c-.369-.213-.634-.605-.634-1.031v-15.696c0-.425.266-.816.634-1.03l13.555-7.847c.185-.107.349-.157.555-.157v-.001z" fill="#404137"/><path d="M518.039 56.442c-1.371 0-2.705.284-3.884.951l-37.337 21.562c-2.416 1.391-3.884 4.021-3.884 6.817v43.045c0 2.795 1.468 5.422 3.884 6.817l9.75 5.628c4.737 2.335 6.484 2.299 8.641 2.299 7.014 0 11.019-4.256 11.019-11.653v-42.489c0-.601-.52-1.031-1.11-1.031h-4.677c-.599 0-1.11.43-1.11 1.031v42.489c0 3.279-3.415 6.576-8.958 3.805l-10.147-5.945c-.358-.195-.634-.54-.634-.951v-43.045c0-.409.273-.824.634-1.03l37.258-21.483c.349-.2.764-.2 1.11 0l37.258 21.483c.355.213.634.609.634 1.03v43.045c0 .411-.206.832-.555 1.03l-37.337 21.483c-.32.19-.761.19-1.11 0l-9.592-5.708c-.285-.167-.675-.155-.951 0-2.648 1.501-3.145 1.675-5.628 2.537-.612.213-1.541.545.317 1.585l12.525 7.372c1.192.69 2.521 1.03 3.884 1.03 1.382 0 2.692-.34 3.884-1.03l37.337-21.483c2.416-1.405 3.884-4.022 3.884-6.817v-43.045c0-2.797-1.468-5.42-3.884-6.817l-37.337-21.562c-1.17-.668-2.513-.951-3.884-.951zm-355.136.872c-.824 0-1.64.208-2.378.634l-39.556 22.751c-1.479.852-2.378 2.496-2.378 4.201v45.66c0 1.707.9 3.268 2.378 4.122l39.556 22.83c1.479.854 3.277.854 4.756 0l39.556-22.83c1.476-.854 2.378-2.415 2.378-4.122v-45.66c0-1.708-.899-3.349-2.378-4.201l-39.556-22.751c-.738-.426-1.554-.634-2.378-.634zm410.547.238v1.11h3.092v8.165h1.268v-8.165h3.171v-1.11h-7.531zm8.641 0v9.275h1.189v-5.47c0-.223.01-.568 0-1.03-.015-.471 0-.881 0-1.11v-.238l2.616 7.848h1.268l2.695-7.848c0 .499-.067.981-.079 1.427v6.420999999999999h1.189v-9.275h-1.744l-2.695 7.848-2.616-7.848h-1.823v.001zm-54.063 29.648c-10.632 0-16.964 4.525-16.964 12.049 0 8.163 6.285 10.405 16.488 11.415 12.208 1.195 13.159 2.987 13.159 5.39 0 4.168-3.323 5.945-11.177 5.945-9.868 0-12.037-2.463-12.763-7.372-.085-.526-.491-.951-1.031-.951h-4.836c-.596 0-1.11.513-1.11 1.11 0 6.283 3.418 13.714 19.739 13.714 11.815 0 18.629-4.638 18.629-12.763 0-8.055-5.505-10.217-16.964-11.732-11.58-1.532-12.683-2.282-12.683-4.994 0-2.239.935-5.232 9.513-5.232 7.661 0 10.492 1.652 11.653 6.818.101.486.53.872 1.031.872h4.836c.298 0 .587-.183.793-.396.203-.228.346-.486.317-.792-.748-8.896-6.681-13.08-18.629-13.08zm-128.578 10.86c-.158 0-.333 0-.476.079l-7.61 4.439c-.285.162-.476.464-.476.793v8.72c0 .328.19.629.476.793l7.61 4.36c.285.165.59.165.872 0l7.61-4.36c.282-.162.476-.464.476-.793v-8.72c0-.328-.193-.629-.476-.793l-7.61-4.439c-.141-.084-.238-.079-.396-.079z" fill="#83CD29"/></g></svg>