<svg width="292" height="152" viewBox="0 0 292 152" xmlns="http://www.w3.org/2000/svg" preserveAspectRatio="xMinYMin meet"><g fill="none"><ellipse fill="#6383B9" cx="146" cy="76" rx="146" ry="76"/><path d="M41 121l16-81h37c16 1 24 9 24 23 0 24-19 38-36 37h-18l-4 21h-19zm27-36l5-30h13c7 0 12 3 12 9-1 17-9 20-18 21h-12z" id="p" fill="#fff"/><path d="M112 100l16-81h19l-4 21h18c16 1 22 9 20 19l-7 41h-20l7-37c1-5 1-8-6-8h-15l-9 45h-19z" fill="#fff"/><path d="M175 121l16-81h37c16 1 24 9 24 23 0 24-19 38-36 37h-18l-4 21h-19zm27-36l5-30h13c7 0 12 3 12 9-1 17-9 20-18 21h-12z" fill="#fff"/></g></svg>