<svg width="292px" height="152px" viewBox="0 0 292 152" version="1.1" xmlns="http://www.w3.org/2000/svg" xmlns:xlink="http://www.w3.org/1999/xlink" preserveAspectRatio="xMinYMin meet">
<g stroke="none" stroke-width="1" fill="none" fill-rule="evenodd">
<ellipse id="Oval" fill="#6383B9" cx="146" cy="76" rx="146" ry="76"></ellipse>
<path d="M38,121 L54,40 L91,40 C107,41 115,49 115,63 C115,87 96,101 79,100 L61,100 L57,121 L38,121 M65,85 L70,55 L83,55 C90,55 95,58 95,64 C94,81 86,84 77,85 L65,85" fill="#FFFFFF"></path>
<path d="M114,100 L130,19 L149,19 L145,40 L163,40 C179,41 185,49 183,59 L176,100 L156,100 L163,63 C164,58 164,55 157,55 L142,55 L133,100 L114,100 L114,100 Z" id="Path" fill="#FFFFFF"></path>
<path d="M177,121 L193,40 L230,40 C246,41 254,49 254,63 C254,87 235,101 218,100 L200,100 L196,121 L177,121 M204,85 L209,55 L222,55 C229,55 234,58 234,64 C233,81 225,84 216,85 L204,85" fill="#FFFFFF"></path>
</g>
</svg>