<svg width="261" height="260" viewBox="0 0 261 260" xmlns="http://www.w3.org/2000/svg" preserveAspectRatio="xMinYMin meet"><defs><linearGradient x1="12.959%" y1="11.7%" x2="79.639%" y2="78.453%" id="a"><stop stop-color="#387EB8" offset="0%"/><stop stop-color="#366994" offset="100%"/></linearGradient><linearGradient x1="19.128%" y1="20.316%" x2="90.742%" y2="88.773%" id="b"><stop stop-color="#FFE052" offset="0%"/><stop stop-color="#FFC331" offset="100%"/></linearGradient></defs><g fill="none"><path d="M129.411.783c-66.075 0-61.949 28.654-61.949 28.654l.074 29.685h63.054v8.913h-88.098s-42.281-4.795-42.281 61.875 36.904 64.306 36.904 64.306h22.025v-30.938s-1.187-36.904 36.315-36.904h62.538s35.136.568 35.136-33.958v-57.087s5.335-34.547-63.717-34.547zm-34.768 19.962c6.273 0 11.344 5.07 11.344 11.344 0 6.273-5.07 11.344-11.344 11.344-6.273 0-11.344-5.07-11.344-11.344 0-6.273 5.07-11.344 11.344-11.344z" fill="url(#a)"/><path d="M131.287 259.706c66.075 0 61.949-28.654 61.949-28.654l-.074-29.685h-63.054v-8.913h88.098s42.281 4.795 42.281-61.875-36.904-64.306-36.904-64.306h-22.025v30.937s1.187 36.904-36.315 36.904h-62.538s-35.136-.568-35.136 33.958v57.087s-5.335 34.547 63.717 34.547zm34.768-19.962c-6.273 0-11.344-5.07-11.344-11.344 0-6.273 5.07-11.344 11.344-11.344 6.273 0 11.344 5.07 11.344 11.344 0 6.273-5.07 11.344-11.344 11.344z" fill="url(#b)"/></g></svg>