<svg width="609" height="545" viewBox="0 0 609 545" xmlns="http://www.w3.org/2000/svg" xmlns:xlink="http://www.w3.org/1999/xlink" preserveAspectRatio="xMinYMin meet"><defs><path d="M124.89 164.311c-7.471 2.125-14.676 4.393-21.581 6.801-62.448 21.773-102.33 55.893-102.33 91.287 0 36.555 42.813 73.22 107.858 95.452 5.135 1.755 10.454 3.421 15.945 4.996-1.781 7.17-3.328 14.195-4.629 21.048-12.337 64.974-2.703 116.567 27.958 134.249 31.668 18.262 84.817-.509 136.571-45.748 3.912-3.419 7.836-7.025 11.768-10.81 5.511 5.325 11.013 10.355 16.486 15.064 50.129 43.138 99.64 60.557 130.272 42.824 31.637-18.315 41.919-73.736 28.571-141.167-1.081-5.463-2.341-11.045-3.774-16.737 3.817-1.126 7.554-2.294 11.205-3.504 67.62-22.404 111.615-58.623 111.615-95.667 0-35.522-41.168-69.873-104.874-91.804-6.119-2.106-12.451-4.103-18.979-5.988 1.073-4.379 2.049-8.697 2.924-12.947 14.373-69.769 4.976-125.976-27.115-144.482-30.771-17.745-81.095.757-131.919 44.987-5.069 4.411-10.152 9.082-15.233 13.994-3.082-2.936-6.159-5.77-9.228-8.495-53.266-47.296-106.655-67.226-138.715-48.666-30.742 17.796-39.845 70.636-26.908 136.757 1.188 6.071 2.56 12.261 4.111 18.554z" id="a"/></defs><g transform="translate(9 9)" fill="none"><g><use fill="#fff" xlink:href="#a"/><use xlink:href="#a"/><use stroke="#fff" stroke-width="18" xlink:href="#a"/></g><circle fill="#00D8FF" cx="296.529" cy="262.628" r="50.167"/><path d="M296.529 172.628c64.818 0 126.39 9.138 173.201 25.253 51.988 17.897 83.7 44.358 83.7 64.747 0 21.718-34.248 49.912-89.857 68.337-44.271 14.668-103.503 22.663-167.044 22.663-66.751 0-126.651-7.839-170.409-22.796-27.394-9.363-50.017-21.532-65.524-34.811-13.934-11.933-20.969-23.78-20.969-33.393 0-20.457 30.499-46.55 81.366-64.285 46.83-16.326 109.91-25.715 175.535-25.715zm0-24c-68.175 0-133.897 9.782-183.436 27.053-59.479 20.737-97.465 53.236-97.465 86.947 0 34.817 40.778 69.739 102.73 90.914 46.567 15.917 108.986 24.086 178.171 24.086 65.936 0 127.66-8.331 174.592-23.881 64.405-21.339 106.309-55.836 106.309-91.119 0-33.833-39.211-66.551-99.888-87.439-49.48-17.034-113.668-26.561-181.013-26.561zM218.131 217.917c32.381-56.149 71.057-104.922 108.403-137.423 41.476-36.095 80.241-50.347 97.903-40.162 18.813 10.849 26.129 54.603 14.309 111.979-9.411 45.679-32.075 100.984-63.818 156.027-33.347 57.825-70.062 105.798-104.879 136.232-21.797 19.053-43.64 32.572-62.89 39.37-17.298 6.109-31.075 6.284-39.403 1.482-17.721-10.22-25.088-49.675-15.039-102.599 9.251-48.722 32.63-108.056 65.416-164.908zm-20.791-11.99c-34.06 59.06-58.418 120.879-68.204 172.42-11.75 61.885-2.574 111.025 26.628 127.867 30.163 17.394 80.785-.485 130.078-43.573 37.053-32.388 75.312-82.379 109.875-142.312 32.939-57.119 56.558-114.75 66.534-163.175 13.69-66.452 4.739-119.987-25.826-137.613-29.308-16.901-77.239.721-125.647 42.848-39.475 34.354-79.794 85.199-113.438 143.537zM218.206 308.47c-32.474-56.095-55.414-113.961-64.921-162.547-10.558-53.959-3.546-94.662 14.099-104.876 18.795-10.881 60.356 4.633 104.16 43.528 34.875 30.965 71.47 78.221 103.305 133.212 33.443 57.768 56.67 113.536 65.65 158.9 5.622 28.399 6.425 54.075 2.701 74.147-3.346 18.037-10.075 30.061-18.395 34.877-17.705 10.249-55.567-3.072-96.4-38.21-37.59-32.347-77.32-82.235-110.201-139.031zm-20.77 12.024c34.159 59.003 75.552 110.98 115.317 145.199 47.746 41.087 94.903 57.678 124.078 40.788 30.133-17.444 39.926-70.23 27.212-134.455-9.556-48.277-33.759-106.389-68.422-166.264-33.036-57.065-71.17-106.308-108.141-139.134-50.733-45.047-101.585-64.029-132.12-46.352-29.28 16.95-37.951 67.278-25.628 130.255 10.048 51.356 33.963 111.681 67.703 169.963z" fill="#00D8FF"/></g></svg>