<svg width="512" height="512" viewBox="0 0 512 512" xmlns="http://www.w3.org/2000/svg" preserveAspectRatio="xMinYMin meet"><defs><radialGradient fx="50%" fy="50%" id="a"><stop stop-color="#ABEAFF" offset="0%"/><stop stop-color="#7BCEFF" offset="100%"/></radialGradient></defs><g fill="none"><circle fill="url(#a)" cx="256" cy="256" r="256"/><path d="M257.5 120h67.5v-3h-69v3h1.5z" fill="#DA5024"/><path d="M186.5 216h67.5v-3h-69v3h1.5z" fill="#DA5024"/><path d="M179.609 402h72.392v-3h-74.00099999999999v3h1.609z" fill="#DA5024"/><path d="M257.5 312h67.5v-3h-69v3h1.5z" fill="#DA5024"/><path d="M252 48.5v398.52h5v-401.02h-5v2.5z" fill="#fff"/><path fill="#4FAE47" d="M320 72h96v96h-96z"/><circle fill="#EDC30E" cx="137" cy="216" r="48"/><path d="M320 360v-96l96 48-96 48z" fill="#3364FB"/><path fill="#C71515" d="M137 351l41.569 24v48l-41.569 24-41.569-24v-48z"/></g></svg>