<?xml version="1.0" encoding="UTF-8" standalone="no"?><svg width="256px" height="254px" viewBox="0 0 256 254" version="1.1" xmlns="http://www.w3.org/2000/svg" xmlns:xlink="http://www.w3.org/1999/xlink" preserveAspectRatio="xMinYMin meet"><g><path d="M256,64 L128.662069,253.793103 L0,64 L44.137931,12.8 L83.862069,0 L172.137931,0 L211.862069,12.8 L256,64" fill="#E38B26"></path><path d="M128.662069,253.793103 L44.137931,86.9517241 L211.862069,86.9517241 L128.662069,253.793103" fill="#ECC13E"></path><path d="M44.137931,86.9517241 L211.862069,86.9517241 L180.965517,29.5724138 L75.0344828,29.5724138 L44.137931,86.9517241" fill="#FAEB98"></path><path d="M75.0344828,29.5724138 L44.137931,12.8 L83.862069,0 L172.137931,0 L211.862069,12.8 L180.965517,29.5724138 L75.0344828,29.5724138" fill="#FDFACA"></path><path d="M0,64 L44.137931,12.8 L75.0344828,29.5724138 L44.137931,86.9517241 L0,64" fill="#F6D563"></path><path d="M181.440883,28.7174621 L212.713931,12.6578759 L255.666317,64.8567172 L211.013738,86.7901793 L181.440883,28.7174621" fill="#F6D563"></path></g></svg>